<?xml version="1.0" encoding="UTF-8"?>
<!DOCTYPE svg PUBLIC "-//W3C//DTD SVG 1.1//EN" "http://www.w3.org/Graphics/SVG/1.1/DTD/svg11.dtd">
<svg xmlns="http://www.w3.org/2000/svg" version="1.1" width="408px" height="612px" style="shape-rendering:geometricPrecision; text-rendering:geometricPrecision; image-rendering:optimizeQuality; fill-rule:evenodd; clip-rule:evenodd" xmlns:xlink="http://www.w3.org/1999/xlink">
<g><path style="opacity:0.727" fill="#393938" d="M 218.5,38.5 C 218.5,39.8333 218.5,41.1667 218.5,42.5C 203.5,35.6664 190.834,38.6664 180.5,51.5C 179.652,50.375 178.652,50.375 177.5,51.5C 183.122,40.4244 192.289,34.7577 205,34.5C 209.816,34.9928 214.316,36.3262 218.5,38.5 Z"/></g>
<g><path style="opacity:0.723" fill="#323232" d="M 218.5,38.5 C 228.273,44.5386 233.273,53.3719 233.5,65C 232.383,68.0731 232.216,71.2397 233,74.5C 234.363,75.8928 235.196,77.5595 235.5,79.5C 234.86,84.4463 233.36,89.1129 231,93.5C 226.269,95.5982 223.435,99.2649 222.5,104.5C 222.043,105.298 221.376,105.631 220.5,105.5C 219.167,105.833 217.833,106.167 216.5,106.5C 222.762,95.8025 226.095,84.1358 226.5,71.5C 225.284,68.1286 224.284,64.7953 223.5,61.5C 221.236,56.9053 217.569,53.7387 212.5,52C 206.843,51.5006 201.176,51.3339 195.5,51.5C 198.977,50.6773 202.644,50.1773 206.5,50C 205.944,49.6174 205.611,49.1174 205.5,48.5C 219.797,48.2983 227.63,55.2983 229,69.5C 230.307,58.5804 226.807,49.5804 218.5,42.5C 218.5,41.1667 218.5,39.8333 218.5,38.5 Z M 228.5,84.5 C 229.376,84.3691 230.043,84.7025 230.5,85.5C 227.705,92.0698 227.039,91.7365 228.5,84.5 Z"/></g>
<g><path style="opacity:0.764" fill="#2c2c2c" d="M 205.5,48.5 C 205.611,49.1174 205.944,49.6174 206.5,50C 202.644,50.1773 198.977,50.6773 195.5,51.5C 188.024,54.1521 184.191,59.4855 184,67.5C 180.955,71.1129 180.121,75.1129 181.5,79.5C 180.167,79.8333 178.833,80.1667 177.5,80.5C 178.303,79.5768 178.47,78.5768 178,77.5C 176.583,78.0779 175.75,79.0779 175.5,80.5C 175.784,82.4147 175.451,84.0813 174.5,85.5C 174.037,82.6697 173.371,80.003 172.5,77.5C 175.485,73.8806 176.152,69.8806 174.5,65.5C 175,61.5 175.5,57.5 176,53.5C 176.278,52.5842 176.778,51.9175 177.5,51.5C 178.652,50.375 179.652,50.375 180.5,51.5C 178.677,57.3707 178.177,63.3707 179,69.5C 179.427,63.8955 181.26,58.8955 184.5,54.5C 189.237,49.9694 194.903,47.9694 201.5,48.5C 202.665,43.2604 203.998,43.2604 205.5,48.5 Z"/></g>
<g><path style="opacity:0.164" fill="#a7a7a7" d="M 223.5,61.5 C 224.284,64.7953 225.284,68.1286 226.5,71.5C 225.21,70.9423 224.377,69.9423 224,68.5C 223.503,66.1902 223.337,63.8568 223.5,61.5 Z"/></g>
<g><path style="opacity:0.404" fill="#232322" d="M 211.5,68.5 C 214.187,68.3359 216.854,68.5026 219.5,69C 221.405,69.8261 221.739,70.9928 220.5,72.5C 219.522,72.0233 218.689,71.3567 218,70.5C 216.299,72.4101 214.133,73.5768 211.5,74C 213.866,74.5625 216.199,74.3958 218.5,73.5C 220.208,73.7028 221.541,74.5362 222.5,76C 220.22,78.3037 217.554,79.8037 214.5,80.5C 214.649,79.448 214.483,78.448 214,77.5C 212.308,79.2446 210.475,79.5779 208.5,78.5C 208.977,77.5224 209.643,76.6891 210.5,76C 207.933,73.1784 208.266,70.6784 211.5,68.5 Z"/></g>
<g><path style="opacity:0.655" fill="#303030" d="M 190.5,72.5 C 189.687,71.3473 188.687,71.3473 187.5,72.5C 186.261,70.9928 186.595,69.8261 188.5,69C 192.203,68.4213 195.869,68.588 199.5,69.5C 200.968,73.3073 200.635,76.9739 198.5,80.5C 197.833,80.8333 197.167,81.1667 196.5,81.5C 194.831,80.3291 193.331,78.9958 192,77.5C 188.299,79.4013 186.633,78.4013 187,74.5C 188.113,73.695 189.279,73.0283 190.5,72.5 Z M 190.5,72.5 C 192.415,72.2155 194.081,72.5489 195.5,73.5C 193.741,74.2614 192.074,73.9281 190.5,72.5 Z"/></g>
<g><path style="opacity:0.125" fill="#afafab" d="M 172.5,77.5 C 173.371,80.003 174.037,82.6697 174.5,85.5C 174.5,85.8333 174.5,86.1667 174.5,86.5C 172.735,83.8774 172.068,80.8774 172.5,77.5 Z"/></g>
<g><path style="opacity:0.1" fill="#a6a6a6" d="M 177.5,80.5 C 178.167,82.1667 178.833,83.8333 179.5,85.5C 178.833,85.5 178.167,85.5 177.5,85.5C 177.5,84.8333 177.167,84.5 176.5,84.5C 176.768,82.901 176.434,81.5676 175.5,80.5C 175.75,79.0779 176.583,78.0779 178,77.5C 178.47,78.5768 178.303,79.5768 177.5,80.5 Z"/></g>
<g><path style="opacity:0.664" fill="#4e4e4e" d="M 198.5,89.5 C 202.167,90.8333 205.833,90.8333 209.5,89.5C 209.5,90.8333 209.5,92.1667 209.5,93.5C 205.833,94.8333 202.167,94.8333 198.5,93.5C 198.5,92.1667 198.5,90.8333 198.5,89.5 Z"/></g>
<g><path style="opacity:0.592" fill="#2c2c2c" d="M 206.5,97.5 C 208.076,98.1429 209.41,99.1429 210.5,100.5C 210.265,101.097 209.765,101.43 209,101.5C 204.829,100.923 200.662,100.256 196.5,99.5C 196.709,98.914 197.043,98.414 197.5,98C 200.482,97.502 203.482,97.3354 206.5,97.5 Z"/></g>
<g><path style="opacity:0.102" fill="#bababa" d="M 206.5,97.5 C 207.873,97.3433 209.207,97.51 210.5,98C 211.774,98.9772 211.774,99.8106 210.5,100.5C 209.41,99.1429 208.076,98.1429 206.5,97.5 Z"/></g>
<g><path style="opacity:0.764" fill="#2a2a2a" d="M 181.5,79.5 C 182.732,88.2478 185.232,96.5811 189,104.5C 192.207,108.186 196.04,111.019 200.5,113C 204.362,113.758 208.028,113.258 211.5,111.5C 214.167,110.833 215.833,109.167 216.5,106.5C 217.833,106.167 219.167,105.833 220.5,105.5C 220.5,108.167 220.5,110.833 220.5,113.5C 219.883,113.611 219.383,113.944 219,114.5C 218.781,113.062 218.281,111.729 217.5,110.5C 216.893,110.624 216.56,110.957 216.5,111.5C 208.084,119.441 199.584,119.441 191,111.5C 190.703,114.914 190.036,118.247 189,121.5C 188.502,123.544 187.335,124.878 185.5,125.5C 184.486,124.326 183.153,123.66 181.5,123.5C 187.093,119.266 188.926,113.599 187,106.5C 184.442,103.178 182.442,99.511 181,95.5C 176.423,94.3074 174.256,91.3074 174.5,86.5C 174.5,86.1667 174.5,85.8333 174.5,85.5C 175.451,84.0813 175.784,82.4147 175.5,80.5C 176.434,81.5676 176.768,82.901 176.5,84.5C 177.167,84.5 177.5,84.8333 177.5,85.5C 178.728,90.6598 179.395,90.6598 179.5,85.5C 178.833,83.8333 178.167,82.1667 177.5,80.5C 178.833,80.1667 180.167,79.8333 181.5,79.5 Z M 177.5,85.5 C 178.167,85.5 178.833,85.5 179.5,85.5C 179.395,90.6598 178.728,90.6598 177.5,85.5 Z"/></g>
<g><path style="opacity:0.329" fill="#838383" d="M 216.5,106.5 C 215.833,109.167 214.167,110.833 211.5,111.5C 212.833,109.5 214.5,107.833 216.5,106.5 Z"/></g>
<g><path style="opacity:0.78" fill="#313130" d="M 181.5,123.5 C 183.153,123.66 184.486,124.326 185.5,125.5C 183.259,127.646 180.592,129.146 177.5,130C 188.207,147.352 202.54,151.185 220.5,141.5C 220.81,142.738 221.31,142.738 222,141.5C 222.464,142.094 222.631,142.761 222.5,143.5C 202.02,155.222 185.686,150.888 173.5,130.5C 165.594,132.313 157.927,134.813 150.5,138C 142.311,146.052 138.311,155.886 138.5,167.5C 137.71,166.391 137.21,165.058 137,163.5C 136.722,164.416 136.222,165.082 135.5,165.5C 135.168,151.666 140.501,140.833 151.5,133C 161.788,130.358 171.788,127.191 181.5,123.5 Z"/></g>
<g><path style="opacity:0.725" fill="#363634" d="M 216.5,111.5 C 216.56,110.957 216.893,110.624 217.5,110.5C 218.281,111.729 218.781,113.062 219,114.5C 219.383,113.944 219.883,113.611 220.5,113.5C 220.58,118.166 222.58,121.666 226.5,124C 236.462,127.126 246.462,130.126 256.5,133C 265.771,139.699 270.771,148.866 271.5,160.5C 270.778,160.082 270.278,159.416 270,158.5C 269.503,160.81 269.337,163.143 269.5,165.5C 268.512,155.04 264.512,145.873 257.5,138C 255.5,137 253.5,136 251.5,135C 245.224,134.075 239.224,132.241 233.5,129.5C 230.541,134.784 226.875,139.451 222.5,143.5C 222.631,142.761 222.464,142.094 222,141.5C 221.31,142.738 220.81,142.738 220.5,141.5C 222.25,140.341 223.25,138.674 223.5,136.5C 226.163,134.911 228.163,132.578 229.5,129.5C 225.37,128.025 221.87,125.692 219,122.5C 218.205,118.688 217.371,115.021 216.5,111.5 Z"/></g>
<g><path style="opacity:0.224" fill="#a8a7a7" d="M 190.5,134.5 C 188.901,134.232 187.568,134.566 186.5,135.5C 185.022,135.762 183.689,135.429 182.5,134.5C 185.309,133.2 187.976,133.2 190.5,134.5 Z"/></g>
<g><path style="opacity:0.314" fill="#5b5a5a" d="M 223.5,136.5 C 218.851,137.295 214.184,137.461 209.5,137C 213.896,134.701 218.562,133.534 223.5,133.5C 223.5,134.5 223.5,135.5 223.5,136.5 Z"/></g>
<g><path style="opacity:0.347" fill="#353534" d="M 190.5,134.5 C 193.696,134.899 196.696,135.899 199.5,137.5C 194.961,138.125 190.627,137.458 186.5,135.5C 187.568,134.566 188.901,134.232 190.5,134.5 Z"/></g>
<g><path style="opacity:0.732" fill="#31302f" d="M 271.5,160.5 C 273.712,181.719 276.045,202.719 278.5,223.5C 278.5,224.833 277.833,225.5 276.5,225.5C 275.073,223.852 274.24,221.852 274,219.5C 273.387,210.979 272.553,202.479 271.5,194C 271.431,192.014 270.765,190.514 269.5,189.5C 269.5,188.833 269.5,188.167 269.5,187.5C 269.971,180.227 269.971,172.894 269.5,165.5C 269.337,163.143 269.503,160.81 270,158.5C 270.278,159.416 270.778,160.082 271.5,160.5 Z"/></g>
<g><path style="opacity:0.747" fill="#3b3b3a" d="M 163.5,208.5 C 162.359,206.333 161.359,204 160.5,201.5C 160.167,201.667 159.833,201.833 159.5,202C 160.444,204.719 160.777,207.552 160.5,210.5C 159.833,208.833 159.167,207.167 158.5,205.5C 158.607,203.621 158.107,203.288 157,204.5C 156.276,208.427 155.109,212.094 153.5,215.5C 154.646,208.936 155.979,202.436 157.5,196C 156.62,194.644 156.286,193.144 156.5,191.5C 150.973,190.695 145.473,189.695 140,188.5C 138.213,188.759 136.713,189.425 135.5,190.5C 135.5,189.5 135.5,188.5 135.5,187.5C 137.857,187.663 140.19,187.497 142.5,187C 141.263,186.768 140.263,186.268 139.5,185.5C 143.337,186.083 147.17,186.75 151,187.5C 152.436,187.441 153.769,187.108 155,186.5C 156.126,178.955 155.46,171.621 153,164.5C 152.503,161.854 152.336,159.187 152.5,156.5C 153.5,156.5 154.5,156.5 155.5,156.5C 155.966,162.863 157.299,169.029 159.5,175C 158.594,179.147 158.427,183.314 159,187.5C 160.404,194.538 161.904,201.538 163.5,208.5 Z"/></g>
<g><path style="opacity:0.749" fill="#383837" d="M 269.5,187.5 C 269.5,188.167 269.5,188.833 269.5,189.5C 263.397,190.661 257.231,191.994 251,193.5C 250.512,199.577 251.012,205.577 252.5,211.5C 251.778,211.082 251.278,210.416 251,209.5C 250.617,210.056 250.117,210.389 249.5,210.5C 248.71,209.391 248.21,208.058 248,206.5C 246.039,214.729 244.872,223.063 244.5,231.5C 244.869,233.993 244.203,234.66 242.5,233.5C 241.837,231.527 241.504,229.361 241.5,227C 242.108,218.749 242.942,210.582 244,202.5C 238.702,203.55 233.202,203.55 227.5,202.5C 233.301,201.677 238.801,200.01 244,197.5C 244.945,197.905 245.612,198.572 246,199.5C 247.166,194.002 248.333,188.502 249.5,183C 248.594,178.853 248.427,174.686 249,170.5C 250.787,165.926 252.287,161.259 253.5,156.5C 254.659,160.122 254.825,163.789 254,167.5C 252.767,169.866 251.934,172.366 251.5,175C 252.345,179.461 252.678,183.961 252.5,188.5C 258.145,187.866 263.811,187.532 269.5,187.5 Z"/></g>
<g><path style="opacity:0.677" fill="#2e2e2d" d="M 194.5,197.5 C 200.544,197.589 206.378,197.589 212,197.5C 213.509,198.09 215.009,198.756 216.5,199.5C 207.518,200.665 198.518,200.832 189.5,200C 191.175,199.015 192.842,198.181 194.5,197.5 Z"/></g>
<g><path style="opacity:0.788" fill="#1d1d1c" d="M 163.5,208.5 C 165.381,217.751 165.714,227.085 164.5,236.5C 163.29,236.068 162.29,235.401 161.5,234.5C 161.366,232.708 161.699,231.042 162.5,229.5C 163.661,224.769 163.328,220.103 161.5,215.5C 160.549,214.081 160.216,212.415 160.5,210.5C 160.777,207.552 160.444,204.719 159.5,202C 159.833,201.833 160.167,201.667 160.5,201.5C 161.359,204 162.359,206.333 163.5,208.5 Z"/></g>
<g><path style="opacity:0.788" fill="#353433" d="M 138.5,167.5 C 137.733,173.117 137.066,178.783 136.5,184.5C 137.791,184.263 138.791,184.596 139.5,185.5C 140.263,186.268 141.263,186.768 142.5,187C 140.19,187.497 137.857,187.663 135.5,187.5C 135.5,188.5 135.5,189.5 135.5,190.5C 134.903,199.847 134.07,209.181 133,218.5C 132.058,221.374 130.891,224.04 129.5,226.5C 128.5,226.167 127.833,225.5 127.5,224.5C 131.083,204.83 133.749,185.164 135.5,165.5C 136.222,165.082 136.722,164.416 137,163.5C 137.21,165.058 137.71,166.391 138.5,167.5 Z"/></g>
<g><path style="opacity:0.569" fill="#434240" d="M 162.5,197.5 C 167.846,200.17 173.513,201.837 179.5,202.5C 175.541,203.66 171.541,203.827 167.5,203C 164.921,201.924 163.254,200.091 162.5,197.5 Z"/></g>
<g><path style="opacity:0.753" fill="#353534" d="M 252.5,211.5 C 255.254,226.517 259.254,241.183 264.5,255.5C 263.348,254.375 262.348,254.375 261.5,255.5C 258.675,250.548 256.509,245.214 255,239.5C 252.686,229.912 250.852,220.246 249.5,210.5C 250.117,210.389 250.617,210.056 251,209.5C 251.278,210.416 251.778,211.082 252.5,211.5 Z"/></g>
<g><path style="opacity:0.56" fill="#70706f" d="M 161.5,215.5 C 163.328,220.103 163.661,224.769 162.5,229.5C 162.167,224.833 161.833,220.167 161.5,215.5 Z"/></g>
<g><path style="opacity:0.359" fill="#333331" d="M 136.5,223.5 C 139.496,224.474 141.163,226.474 141.5,229.5C 138.903,229.357 136.569,228.523 134.5,227C 135.305,225.887 135.972,224.721 136.5,223.5 Z"/></g>
<g><path style="opacity:0.718" fill="#302f2e" d="M 127.5,224.5 C 127.833,225.5 128.5,226.167 129.5,226.5C 129.611,227.117 129.944,227.617 130.5,228C 128.437,230.511 126.937,233.344 126,236.5C 121.415,257.426 117.081,278.426 113,299.5C 110.275,306.616 107.275,313.616 104,320.5C 103.272,327.57 104.439,334.236 107.5,340.5C 106.167,340.5 105.5,341.167 105.5,342.5C 103.864,341.251 102.697,339.584 102,337.5C 98.5251,325.154 100.525,313.821 108,303.5C 113.485,282.408 117.818,261.075 121,239.5C 123.026,234.321 125.193,229.321 127.5,224.5 Z"/></g>
<g><path style="opacity:0.771" fill="#383736" d="M 244.5,231.5 C 248.863,245.089 253.363,258.756 258,272.5C 259.717,280.804 261.217,289.137 262.5,297.5C 260.94,299.156 259.94,301.156 259.5,303.5C 258.313,296.194 257.313,288.861 256.5,281.5C 252.202,282.2 247.869,282.533 243.5,282.5C 242.432,281.566 241.099,281.232 239.5,281.5C 244.256,279.882 249.256,278.882 254.5,278.5C 254.664,275.813 254.497,273.146 254,270.5C 248.846,258.541 245.013,246.207 242.5,233.5C 244.203,234.66 244.869,233.993 244.5,231.5 Z"/></g>
<g><path style="opacity:0.751" fill="#333332" d="M 278.5,223.5 C 281.656,228.774 284.156,234.441 286,240.5C 289.307,262.368 293.64,284.035 299,305.5C 306.883,315.891 308.549,327.224 304,339.5C 302.231,343.266 299.731,346.433 296.5,349C 293.084,349.893 289.917,349.393 287,347.5C 286.023,344.183 286.856,341.516 289.5,339.5C 289.56,340.043 289.893,340.376 290.5,340.5C 292.264,337.823 293.43,338.156 294,341.5C 295.521,341.481 297.021,341.148 298.5,340.5C 299.79,339.942 300.623,338.942 301,337.5C 303.827,330.43 303.827,323.43 301,316.5C 295.355,306.951 291.688,296.617 290,285.5C 288.21,264.809 283.71,244.809 276.5,225.5C 277.833,225.5 278.5,224.833 278.5,223.5 Z"/></g>
<g><path style="opacity:0.733" fill="#333231" d="M 158.5,205.5 C 156.101,220.764 152.601,235.764 148,250.5C 140.674,265.798 133.34,281.132 126,296.5C 125.667,302.5 125.333,308.5 125,314.5C 123.546,317.071 122.38,319.738 121.5,322.5C 120.778,322.082 120.278,321.416 120,320.5C 119.817,323.365 119.317,326.031 118.5,328.5C 118.605,321.611 119.938,314.944 122.5,308.5C 121.407,304.892 121.24,301.225 122,297.5C 128.759,281.555 136.092,265.888 144,250.5C 147.714,238.877 150.88,227.21 153.5,215.5C 155.109,212.094 156.276,208.427 157,204.5C 158.107,203.288 158.607,203.621 158.5,205.5 Z"/></g>
<g><path style="opacity:0.699" fill="#363635" d="M 161.5,234.5 C 162.29,235.401 163.29,236.068 164.5,236.5C 161.157,247.698 157.323,258.698 153,269.5C 152.26,272.176 151.927,274.842 152,277.5C 162.544,280.784 173.377,282.451 184.5,282.5C 182.58,283.065 180.913,284.065 179.5,285.5C 169.834,284.532 160.334,282.866 151,280.5C 149.802,287.334 148.302,294 146.5,300.5C 146.771,298.62 146.104,297.287 144.5,296.5C 147.756,275.08 153.423,254.413 161.5,234.5 Z"/></g>
<g><path style="opacity:0.797" fill="#393938" d="M 264.5,255.5 C 272.1,270.206 278.767,285.373 284.5,301C 284.486,302.385 284.152,303.551 283.5,304.5C 283.657,303.127 283.49,301.793 283,300.5C 282.617,301.056 282.117,301.389 281.5,301.5C 274.827,286.156 268.161,270.823 261.5,255.5C 262.348,254.375 263.348,254.375 264.5,255.5 Z"/></g>
<g><path style="opacity:0.819" fill="#383837" d="M 239.5,281.5 C 241.099,281.232 242.432,281.566 243.5,282.5C 230.467,285.403 217.134,286.737 203.5,286.5C 203.5,295.5 203.5,304.5 203.5,313.5C 202.833,305.167 202.167,296.833 201.5,288.5C 194.543,286.725 187.21,285.725 179.5,285.5C 180.913,284.065 182.58,283.065 184.5,282.5C 189.785,283.118 195.119,283.451 200.5,283.5C 213.503,282.833 226.503,282.166 239.5,281.5 Z"/></g>
<g><path style="opacity:0.367" fill="#71706e" d="M 201.5,288.5 C 202.167,296.833 202.833,305.167 203.5,313.5C 203.631,314.376 203.298,315.043 202.5,315.5C 201.502,306.525 201.168,297.525 201.5,288.5 Z"/></g>
<g><path style="opacity:0.737" fill="#393838" d="M 207.5,335.5 C 207.028,333.469 206.028,331.802 204.5,330.5C 203.251,322.652 202.585,322.652 202.5,330.5C 201.697,342.035 200.364,353.368 198.5,364.5C 198.631,363.761 198.464,363.094 198,362.5C 197.329,363.252 196.496,363.586 195.5,363.5C 196.525,354.825 197.692,346.158 199,337.5C 199.667,331.5 199.667,325.5 199,319.5C 195.515,317.014 192.348,314.181 189.5,311C 189.85,309.743 190.517,309.409 191.5,310C 195.639,312.639 199.639,315.472 203.5,318.5C 207.03,315.805 210.696,313.305 214.5,311C 215.635,310.251 216.635,310.417 217.5,311.5C 214.505,314.325 211.338,316.992 208,319.5C 207.501,324.823 207.334,330.156 207.5,335.5 Z"/></g>
<g><path style="opacity:0.506" fill="#252524" d="M 118.5,328.5 C 119.317,326.031 119.817,323.365 120,320.5C 120.278,321.416 120.778,322.082 121.5,322.5C 121.666,326.514 121.499,330.514 121,334.5C 119.933,335.943 118.766,337.276 117.5,338.5C 122.588,346.162 120.588,349.662 111.5,349C 109.146,347.028 107.146,344.861 105.5,342.5C 105.5,341.167 106.167,340.5 107.5,340.5C 108.912,338.77 108.578,337.27 106.5,336C 107.548,334.244 107.548,332.41 106.5,330.5C 106.968,327.453 107.968,324.619 109.5,322C 108.483,320.951 108.316,319.784 109,318.5C 113.966,313.189 116.466,314.522 116.5,322.5C 115.621,325.812 115.454,329.145 116,332.5C 116.667,331.167 117.333,331.167 118,332.5C 118.49,331.207 118.657,329.873 118.5,328.5 Z M 111.5,323.5 C 112.043,323.56 112.376,323.893 112.5,324.5C 111.667,326.167 110.833,327.833 110,329.5C 109.252,327.16 109.752,325.16 111.5,323.5 Z"/></g>
<g><path style="opacity:0.743" fill="#2c2c2a" d="M 262.5,297.5 C 264.131,307.886 264.631,318.553 264,329.5C 260.465,353.244 256.465,376.911 252,400.5C 251.333,408.167 251.333,415.833 252,423.5C 254.597,440.787 255.097,458.121 253.5,475.5C 252.778,476.551 251.778,477.218 250.5,477.5C 251.724,455.25 250.724,433.083 247.5,411C 249.288,395.734 251.621,380.567 254.5,365.5C 256.04,363.162 256.706,360.495 256.5,357.5C 258.546,345.058 260.212,332.558 261.5,320C 261.2,314.433 260.533,308.933 259.5,303.5C 259.94,301.156 260.94,299.156 262.5,297.5 Z"/></g>
<g><path style="opacity:0.567" fill="#3b3b3b" d="M 298.5,336.5 C 297.152,335.814 295.985,334.814 295,333.5C 294.667,333.833 294.333,334.167 294,334.5C 294.154,332.439 294.654,330.439 295.5,328.5C 296.302,329.952 296.802,331.618 297,333.5C 298.116,329.712 297.45,326.378 295,323.5C 294.601,323.728 294.435,324.062 294.5,324.5C 293.226,323.811 293.226,322.977 294.5,322C 293.333,321.5 292.5,320.667 292,319.5C 291.722,320.416 291.222,321.082 290.5,321.5C 290.261,319.533 290.594,317.699 291.5,316C 292.5,315.333 293.5,315.333 294.5,316C 294.167,316.333 293.833,316.667 293.5,317C 294.872,317.631 296.205,318.298 297.5,319C 297.355,319.772 297.022,320.439 296.5,321C 298.941,323.653 299.941,326.82 299.5,330.5C 299.495,332.696 299.162,334.696 298.5,336.5 Z"/></g>
<g><path style="opacity:0.195" fill="#bfbfbf" d="M 204.5,330.5 C 204.784,332.415 204.451,334.081 203.5,335.5C 203.784,333.585 203.451,331.919 202.5,330.5C 202.585,322.652 203.251,322.652 204.5,330.5 Z"/></g>
<g><path style="opacity:0.708" fill="#1e1e1d" d="M 283.5,304.5 C 283.454,310.687 285.454,316.354 289.5,321.5C 289.5,322.167 289.5,322.833 289.5,323.5C 288.883,323.389 288.383,323.056 288,322.5C 287.746,325.195 287.579,327.695 287.5,330C 289.552,334.77 290.886,334.603 291.5,329.5C 291.599,326.763 291.265,324.096 290.5,321.5C 291.222,321.082 291.722,320.416 292,319.5C 292.5,320.667 293.333,321.5 294.5,322C 293.226,322.977 293.226,323.811 294.5,324.5C 295.234,325.708 295.567,327.041 295.5,328.5C 294.654,330.439 294.154,332.439 294,334.5C 294.333,334.167 294.667,333.833 295,333.5C 295.985,334.814 297.152,335.814 298.5,336.5C 299.405,337.702 299.405,339.036 298.5,340.5C 297.021,341.148 295.521,341.481 294,341.5C 293.43,338.156 292.264,337.823 290.5,340.5C 289.893,340.376 289.56,340.043 289.5,339.5C 287.465,337.608 285.965,335.275 285,332.5C 284.667,328.5 284.333,324.5 284,320.5C 280.786,314.454 279.953,308.121 281.5,301.5C 282.117,301.389 282.617,301.056 283,300.5C 283.49,301.793 283.657,303.127 283.5,304.5 Z M 289.5,323.5 C 289.5,323.833 289.5,324.167 289.5,324.5C 290.167,326.167 290.833,327.833 291.5,329.5C 290.886,334.603 289.552,334.77 287.5,330C 287.579,327.695 287.746,325.195 288,322.5C 288.383,323.056 288.883,323.389 289.5,323.5 Z"/></g>
<g><path style="opacity:0.188" fill="#ababab" d="M 289.5,321.5 C 289.833,321.5 290.167,321.5 290.5,321.5C 291.265,324.096 291.599,326.763 291.5,329.5C 290.833,327.833 290.167,326.167 289.5,324.5C 289.5,324.167 289.5,323.833 289.5,323.5C 289.5,322.833 289.5,322.167 289.5,321.5 Z"/></g>
<g><path style="opacity:0.723" fill="#2b2b2a" d="M 144.5,296.5 C 146.104,297.287 146.771,298.62 146.5,300.5C 145.575,310.873 145.408,321.54 146,332.5C 149.334,350.83 152.501,369.163 155.5,387.5C 154.542,387.047 153.708,386.381 153,385.5C 152.601,385.728 152.435,386.062 152.5,386.5C 148.081,366.786 144.581,346.786 142,326.5C 141.35,316.368 142.183,306.368 144.5,296.5 Z"/></g>
<g><path style="opacity:0.779" fill="#343332" d="M 204.5,330.5 C 206.028,331.802 207.028,333.469 207.5,335.5C 210.449,354.339 212.449,373.006 213.5,391.5C 212.728,390.306 211.728,389.306 210.5,388.5C 208.256,370.794 205.923,353.128 203.5,335.5C 204.451,334.081 204.784,332.415 204.5,330.5 Z"/></g>
<g><path style="opacity:0.051" fill="#b2b2af" d="M 256.5,357.5 C 256.706,360.495 256.04,363.162 254.5,365.5C 254.565,362.572 255.232,359.905 256.5,357.5 Z"/></g>
<g><path style="opacity:0.739" fill="#30302f" d="M 198.5,364.5 C 197.708,390.257 194.708,415.757 189.5,441C 190.954,454.561 190.621,468.061 188.5,481.5C 186.692,480.082 186.025,478.082 186.5,475.5C 187.75,464.335 187.75,453.168 186.5,442C 186.805,431.979 188.305,422.145 191,412.5C 191.933,396.105 193.433,379.772 195.5,363.5C 196.496,363.586 197.329,363.252 198,362.5C 198.464,363.094 198.631,363.761 198.5,364.5 Z"/></g>
<g><path style="opacity:0.173" fill="#afaeac" d="M 152.5,390.5 C 154.011,393.544 154.678,396.878 154.5,400.5C 153.215,397.411 152.549,394.078 152.5,390.5 Z"/></g>
<g><path style="opacity:0.859" fill="#292928" d="M 155.5,387.5 C 158.937,405.136 158.937,422.803 155.5,440.5C 154.71,441.609 154.21,442.942 154,444.5C 153.617,443.944 153.117,443.611 152.5,443.5C 153.97,429.214 154.637,414.881 154.5,400.5C 154.678,396.878 154.011,393.544 152.5,390.5C 152.5,389.167 152.5,387.833 152.5,386.5C 152.435,386.062 152.601,385.728 153,385.5C 153.708,386.381 154.542,387.047 155.5,387.5 Z"/></g>
<g><path style="opacity:0.467" fill="#464645" d="M 242.5,417.5 C 243.477,420.287 243.81,423.287 243.5,426.5C 242.5,426.5 241.5,426.5 240.5,426.5C 240.756,423.402 241.422,420.402 242.5,417.5 Z"/></g>
<g><path style="opacity:0.741" fill="#393938" d="M 161.5,418.5 C 162.5,418.5 163.5,418.5 164.5,418.5C 165.309,429.009 164.309,429.009 161.5,418.5 Z"/></g>
<g><path style="opacity:0.467" fill="#474746" d="M 182.5,418.5 C 183.88,418.962 184.547,419.962 184.5,421.5C 183.377,427.439 180.211,431.772 175,434.5C 174.5,434.167 174,433.833 173.5,433.5C 175.387,431.96 177.22,430.293 179,428.5C 179.898,425.045 181.065,421.711 182.5,418.5 Z"/></g>
<g><path style="opacity:0.721" fill="#323231" d="M 210.5,388.5 C 211.728,389.306 212.728,390.306 213.5,391.5C 214.202,404.651 216.036,417.651 219,430.5C 219.5,444.163 219.667,457.829 219.5,471.5C 218.395,470.4 217.062,469.733 215.5,469.5C 216.62,448.945 215.12,428.612 211,408.5C 210.812,402.252 210.312,396.085 209.5,390C 210.056,389.617 210.389,389.117 210.5,388.5 Z"/></g>
<g><path style="opacity:0.682" fill="#575754" d="M 222.5,418.5 C 224.979,421.72 226.812,425.387 228,429.5C 229.512,430.257 230.846,431.257 232,432.5C 232.591,433.483 232.257,434.15 231,434.5C 226.735,433.002 224.069,430.002 223,425.5C 222.503,423.19 222.337,420.857 222.5,418.5 Z"/></g>
<g><path style="opacity:0.694" fill="#2f2e2d" d="M 155.5,440.5 C 154.545,448.814 154.378,457.148 155,465.5C 157.052,482.92 159.552,500.253 162.5,517.5C 161.842,516.602 161.176,515.602 160.5,514.5C 159.893,514.624 159.56,514.957 159.5,515.5C 152.998,491.994 150.664,467.994 152.5,443.5C 153.117,443.611 153.617,443.944 154,444.5C 154.21,442.942 154.71,441.609 155.5,440.5 Z"/></g>
<g><path style="opacity:0.098" fill="#5d5d5c" d="M 186.5,475.5 C 186.025,478.082 186.692,480.082 188.5,481.5C 188.802,484.059 188.468,486.393 187.5,488.5C 187.5,486.5 187.5,484.5 187.5,482.5C 186.5,482.5 185.5,482.5 184.5,482.5C 185.065,480.048 185.732,477.715 186.5,475.5 Z"/></g>
<g><path style="opacity:0.739" fill="#2c2b2a" d="M 215.5,469.5 C 217.062,469.733 218.395,470.4 219.5,471.5C 222.776,491.03 224.942,510.697 226,530.5C 226.772,531.849 227.939,532.682 229.5,533C 232.146,533.497 234.813,533.664 237.5,533.5C 238.289,533.783 238.956,534.283 239.5,535C 237.618,535.198 235.952,535.698 234.5,536.5C 231.881,536.768 229.381,536.435 227,535.5C 226.667,536.167 226.333,536.833 226,537.5C 225.082,544.511 224.582,551.511 224.5,558.5C 223.698,559.952 223.198,561.618 223,563.5C 222.503,561.19 222.337,558.857 222.5,556.5C 222.156,544.193 221.989,531.86 222,519.5C 219.899,502.605 217.732,485.939 215.5,469.5 Z"/></g>
<g><path style="opacity:0.729" fill="#282726" d="M 184.5,482.5 C 185.5,482.5 186.5,482.5 187.5,482.5C 187.5,484.5 187.5,486.5 187.5,488.5C 185.348,502.417 184.014,516.417 183.5,530.5C 182.542,530.953 181.708,531.619 181,532.5C 180.809,530.292 180.309,528.292 179.5,526.5C 181.399,511.595 183.066,496.928 184.5,482.5 Z"/></g>
<g><path style="opacity:0.752" fill="#2a2928" d="M 253.5,475.5 C 249.68,498.252 246.347,521.085 243.5,544C 244.967,554.434 249.467,563.268 257,570.5C 257.667,572.833 257.667,575.167 257,577.5C 256.578,579.426 255.411,580.426 253.5,580.5C 252.022,579.552 251.022,578.219 250.5,576.5C 250.167,576.5 249.833,576.5 249.5,576.5C 248.833,576.5 248.5,576.167 248.5,575.5C 249.833,575.167 249.833,574.833 248.5,574.5C 248.167,573.167 247.833,573.167 247.5,574.5C 247.167,575.167 246.833,575.833 246.5,576.5C 246.167,576.5 245.833,576.5 245.5,576.5C 245.5,576.167 245.5,575.833 245.5,575.5C 245.5,574.5 245.5,573.5 245.5,572.5C 248.344,570.521 248.678,568.354 246.5,566C 247.167,565.667 247.833,565.333 248.5,565C 246.315,562.465 244.482,559.631 243,556.5C 241.164,550.304 240.164,543.97 240,537.5C 238.301,536.594 236.467,536.261 234.5,536.5C 235.952,535.698 237.618,535.198 239.5,535C 238.956,534.283 238.289,533.783 237.5,533.5C 238.568,532.566 239.901,532.232 241.5,532.5C 243.884,513.938 246.884,495.604 250.5,477.5C 251.778,477.218 252.778,476.551 253.5,475.5 Z"/></g>
<g><path style="opacity:0.741" fill="#252524" d="M 162.5,517.5 C 163.903,522.387 164.569,527.387 164.5,532.5C 165.959,532.433 167.292,532.766 168.5,533.5C 168.611,534.117 168.944,534.617 169.5,535C 168.207,535.49 166.873,535.657 165.5,535.5C 165.325,540.756 164.992,546.09 164.5,551.5C 163.171,545.548 162.171,539.548 161.5,533.5C 160.046,527.631 159.379,521.631 159.5,515.5C 159.56,514.957 159.893,514.624 160.5,514.5C 161.176,515.602 161.842,516.602 162.5,517.5 Z"/></g>
<g><path style="opacity:0.775" fill="#40403f" d="M 161.5,533.5 C 162.171,539.548 163.171,545.548 164.5,551.5C 161.799,557.489 159.465,563.322 157.5,569C 160.175,571.936 163.175,574.436 166.5,576.5C 166.938,576.435 167.272,576.601 167.5,577C 166.915,578.302 166.249,579.469 165.5,580.5C 165.204,576.907 164.204,576.241 162.5,578.5C 162.737,577.209 162.404,576.209 161.5,575.5C 161.167,574.167 160.833,574.167 160.5,575.5C 160.167,576.167 159.833,576.833 159.5,577.5C 159.167,577.5 158.833,577.5 158.5,577.5C 156.829,575.992 154.996,575.659 153,576.5C 152.26,575.251 152.427,574.251 153.5,573.5C 154.167,573.5 154.5,573.167 154.5,572.5C 155.416,569.54 154.082,568.207 150.5,568.5C 159.858,558.764 163.525,547.098 161.5,533.5 Z"/></g>
<g><path style="opacity:0.766" fill="#3b3b39" d="M 179.5,526.5 C 180.309,528.292 180.809,530.292 181,532.5C 181.708,531.619 182.542,530.953 183.5,530.5C 183.643,532.262 183.309,533.929 182.5,535.5C 183.719,538.544 184.386,541.711 184.5,545C 183.213,550.17 183.213,555.336 184.5,560.5C 184.263,564.302 182.93,567.635 180.5,570.5C 179.833,569.833 179.167,569.167 178.5,568.5C 179.306,565.715 179.972,562.881 180.5,560C 180.169,552.99 179.836,545.99 179.5,539C 179.095,538.055 178.428,537.388 177.5,537C 173.312,536.824 169.312,536.324 165.5,535.5C 166.873,535.657 168.207,535.49 169.5,535C 168.944,534.617 168.611,534.117 168.5,533.5C 172.215,533.577 175.881,533.244 179.5,532.5C 179.5,530.5 179.5,528.5 179.5,526.5 Z"/></g>
<g><path style="opacity:0.836" fill="#323231" d="M 222.5,556.5 C 222.337,558.857 222.503,561.19 223,563.5C 223.198,561.618 223.698,559.952 224.5,558.5C 226.714,563.84 227.881,569.507 228,575.5C 229.222,580.084 232.056,582.25 236.5,582C 237.022,581.439 237.355,580.772 237.5,580C 236.173,577.547 235.339,575.047 235,572.5C 235.718,571.549 236.551,571.383 237.5,572C 238.46,573.419 239.293,574.919 240,576.5C 240.483,575.552 240.649,574.552 240.5,573.5C 242.216,573.371 243.883,573.038 245.5,572.5C 245.5,573.5 245.5,574.5 245.5,575.5C 244.167,575.833 244.167,576.167 245.5,576.5C 245.833,579.167 246.167,579.167 246.5,576.5C 246.833,575.833 247.167,575.167 247.5,574.5C 247.833,574.5 248.167,574.5 248.5,574.5C 248.5,574.833 248.5,575.167 248.5,575.5C 248.5,576.167 248.833,576.5 249.5,576.5C 249.833,577.833 250.167,577.833 250.5,576.5C 251.022,578.219 252.022,579.552 253.5,580.5C 251.728,582.606 249.562,584.273 247,585.5C 241.062,585.386 234.896,584.886 228.5,584C 225.653,577.726 223.487,571.226 222,564.5C 221.199,561.633 221.366,558.966 222.5,556.5 Z M 241.5,576.5 C 242.339,577.641 243.006,578.974 243.5,580.5C 241.494,581.626 240.16,580.96 239.5,578.5C 239.846,577.304 240.346,577.304 241,578.5C 241.464,577.906 241.631,577.239 241.5,576.5 Z"/></g>
<g><path style="opacity:0.795" fill="#2a2a29" d="M 150.5,568.5 C 154.082,568.207 155.416,569.54 154.5,572.5C 153.833,572.5 153.5,572.833 153.5,573.5C 152.427,574.251 152.26,575.251 153,576.5C 154.996,575.659 156.829,575.992 158.5,577.5C 157.323,579.103 157.489,580.436 159,581.5C 159.49,580.207 159.657,578.873 159.5,577.5C 159.833,576.833 160.167,576.167 160.5,575.5C 160.833,575.5 161.167,575.5 161.5,575.5C 162.404,576.209 162.737,577.209 162.5,578.5C 160.966,580.342 161.3,581.675 163.5,582.5C 164.107,582.376 164.44,582.043 164.5,581.5C 165.167,581.5 165.5,581.167 165.5,580.5C 166.249,579.469 166.915,578.302 167.5,577C 167.272,576.601 166.938,576.435 166.5,576.5C 166.795,574.577 167.628,572.91 169,571.5C 169.87,572.108 170.37,572.941 170.5,574C 168.722,576.225 168.222,578.725 169,581.5C 173.226,582.708 175.893,581.041 177,576.5C 177.183,573.635 177.683,570.969 178.5,568.5C 179.167,569.167 179.833,569.833 180.5,570.5C 181.429,575.765 180.096,580.265 176.5,584C 168.85,585.798 161.184,585.465 153.5,583C 152.495,581.493 151.162,580.327 149.5,579.5C 148.415,576.227 148.248,572.894 149,569.5C 149.383,568.944 149.883,568.611 150.5,568.5 Z M 158.5,577.5 C 158.833,577.5 159.167,577.5 159.5,577.5C 159.657,578.873 159.49,580.207 159,581.5C 157.489,580.436 157.323,579.103 158.5,577.5 Z M 165.5,580.5 C 165.5,581.167 165.167,581.5 164.5,581.5C 164.44,582.043 164.107,582.376 163.5,582.5C 161.3,581.675 160.966,580.342 162.5,578.5C 164.204,576.241 165.204,576.907 165.5,580.5 Z"/></g>
</svg>
