<?xml version="1.0" standalone="no"?>
<!DOCTYPE svg PUBLIC "-//W3C//DTD SVG 20010904//EN"
 "http://www.w3.org/TR/2001/REC-SVG-20010904/DTD/svg10.dtd">
<svg version="1.0" xmlns="http://www.w3.org/2000/svg"
 width="500.000000pt" height="500.000000pt" viewBox="0 0 500.000000 500.000000"
 preserveAspectRatio="xMidYMid meet">

<g transform="translate(0.000000,500.000000) scale(0.100000,-0.100000)"
fill="#000000" stroke="none">
<path d="M2335 4840 c-85 -26 -132 -47 -138 -63 -3 -8 1 -26 8 -41 8 -14 10
-28 6 -30 -13 -9 -34 -113 -28 -142 4 -21 -4 -44 -29 -87 -19 -32 -34 -65 -34
-73 0 -8 14 -20 30 -26 23 -8 29 -15 25 -28 -3 -10 -2 -21 4 -24 5 -3 7 -15 4
-25 -3 -10 0 -22 6 -25 6 -4 11 -22 11 -40 0 -47 18 -58 87 -54 l58 3 22 -45
c12 -25 29 -71 37 -104 l16 -59 -27 -26 c-36 -36 -146 -220 -180 -300 -31 -74
-28 -23 -32 -696 -1 -192 0 -372 4 -400 3 -27 9 -109 13 -181 5 -94 12 -137
23 -155 13 -19 14 -30 7 -43 -18 -33 -3 -142 25 -184 28 -41 72 -203 112 -412
23 -123 56 -220 75 -220 20 0 39 -77 50 -199 6 -74 13 -137 15 -141 8 -12 7
-395 0 -413 -4 -10 -5 -40 -1 -67 6 -47 -5 -69 -18 -35 -4 12 -14 10 -53 -13
-26 -16 -70 -34 -98 -41 -27 -7 -86 -24 -130 -38 -44 -15 -86 -28 -92 -29 -7
-2 -13 -15 -13 -28 0 -36 44 -56 121 -56 l62 0 -24 -19 c-24 -19 -82 -38 -129
-43 -19 -2 -26 -10 -28 -30 -3 -22 4 -31 45 -55 42 -24 60 -28 148 -31 99 -4
157 2 384 36 102 16 114 20 126 42 8 16 17 109 24 245 7 121 16 275 21 343 16
194 12 334 -11 467 -11 66 -27 137 -35 158 -8 20 -14 52 -14 71 0 18 -3 36 -7
39 -10 11 -3 540 8 553 5 6 7 19 3 27 -3 9 13 56 36 106 77 169 77 295 -2 636
-15 64 -12 117 11 235 11 52 24 131 31 175 12 85 26 170 41 248 22 118 4 322
-38 430 -20 51 -65 120 -109 167 -18 19 -41 53 -52 75 -25 49 -39 135 -23 135
6 0 11 5 11 11 0 6 18 51 39 99 73 160 64 267 -28 367 -32 34 -60 55 -87 62
-61 17 -220 12 -289 -9z m280 -1 c48 -14 118 -86 141 -146 27 -69 15 -169 -33
-278 -22 -51 -46 -91 -55 -93 -8 -2 -30 10 -48 25 -19 15 -31 21 -28 13 2 -8
20 -24 39 -34 33 -18 36 -23 47 -95 10 -65 10 -76 -3 -84 -9 -4 -44 -31 -78
-58 -68 -54 -147 -109 -157 -109 -4 0 -13 25 -20 55 -7 30 -25 79 -40 110
l-27 57 21 8 c11 4 35 23 51 40 l30 33 -43 -31 c-38 -27 -129 -62 -160 -62
-20 0 -43 32 -37 50 3 11 0 28 -7 40 -11 17 -11 22 1 29 11 7 11 10 -2 17 -8
5 -17 20 -19 34 -2 17 -10 26 -25 28 -13 2 -23 9 -23 16 0 17 38 93 50 101 5
3 10 15 10 26 0 11 10 24 23 29 22 9 21 9 -4 9 -26 1 -26 2 -18 44 11 63 27
97 46 104 15 6 14 8 -7 13 -18 4 -25 13 -25 29 0 20 10 28 65 48 36 14 83 28
105 33 60 12 185 11 230 -1z m179 -800 c67 -88 100 -191 110 -344 7 -99 -17
-276 -89 -680 -18 -100 -19 -95 23 -290 16 -77 28 -143 25 -147 -2 -5 -14 -8
-26 -8 -26 0 -149 -38 -127 -39 8 0 37 6 64 14 75 23 96 20 96 -11 0 -15 -8
-33 -17 -41 -17 -13 -16 -14 5 -8 19 5 22 3 22 -21 0 -65 -25 -165 -61 -242
-22 -46 -39 -94 -39 -107 0 -13 -3 -31 -6 -40 -6 -13 -9 -14 -16 -3 -7 9 -7 7
-2 -7 12 -29 16 -269 7 -413 -6 -91 -5 -126 3 -133 7 -6 14 -31 17 -57 3 -26
17 -96 31 -157 32 -136 37 -289 18 -585 -7 -113 -15 -236 -17 -275 -2 -38 -4
-75 -4 -82 -1 -14 -93 -37 -118 -29 -10 3 -34 8 -53 11 -19 3 -59 17 -89 31
-29 13 -59 24 -67 24 -24 0 -23 16 2 54 15 22 31 35 39 32 11 -4 11 2 -1 29
-21 51 -18 96 6 102 15 4 17 9 10 23 -6 10 -10 27 -9 37 0 10 8 1 19 -22 10
-22 19 -35 19 -29 1 7 -7 31 -18 54 -13 30 -19 67 -20 138 -1 97 -14 247 -32
374 -5 37 -9 79 -9 94 0 17 -17 52 -40 85 -24 34 -44 77 -49 106 -43 215 -74
353 -107 466 -5 16 -3 16 28 -3 35 -21 63 -26 72 -11 4 5 -2 7 -12 4 -19 -5
-94 40 -123 74 -9 10 -19 46 -23 79 -6 58 -5 66 39 155 25 52 51 112 57 134 6
22 28 92 49 156 37 112 54 181 79 319 7 36 26 107 42 158 29 89 30 97 19 162
-6 38 -11 104 -11 148 l0 79 59 13 c59 12 254 11 267 -2 6 -6 -26 -164 -47
-232 -5 -16 -9 -45 -9 -65 -1 -116 -88 -369 -197 -571 -107 -197 -110 -203
-105 -265 2 -39 -2 -72 -13 -103 -13 -34 -16 -62 -12 -113 3 -38 2 -69 -2 -69
-12 0 -34 27 -48 59 -7 16 -12 20 -12 10 -1 -9 10 -33 24 -53 14 -20 25 -39
25 -41 0 -3 -12 -5 -27 -5 -20 0 -24 -3 -14 -9 18 -12 51 -2 51 15 0 8 5 14
11 14 8 0 9 19 5 63 -5 46 -3 75 8 108 9 24 16 77 16 117 0 62 4 82 29 125 70
127 68 125 141 128 30 2 29 3 -12 8 -47 6 -48 6 -35 31 13 26 118 269 131 305
19 51 36 132 47 217 6 51 13 96 15 100 2 4 8 26 13 50 5 24 16 77 24 118 19
91 29 187 17 150 -4 -14 -11 -36 -14 -50 l-5 -25 -138 0 c-76 0 -150 -4 -165
-9 -28 -8 -28 -8 -28 36 0 24 -13 84 -30 133 -33 103 -39 99 -11 -8 14 -51 23
-137 31 -285 l11 -212 -29 -93 c-16 -50 -35 -126 -42 -167 -14 -83 -41 -193
-63 -255 l-14 -40 -76 0 c-41 0 -79 3 -83 7 -12 13 -16 432 -7 758 9 296 10
307 35 368 14 34 44 90 66 125 22 34 51 82 64 107 19 34 38 52 81 75 31 17 82
50 114 75 31 25 77 59 102 77 l46 32 23 -27 c13 -15 42 -52 66 -83z m-444
-1539 c0 -27 -45 -169 -72 -226 -43 -92 -54 -75 -62 99 l-6 137 70 0 c39 0 70
-4 70 -10z m135 -2011 c4 -6 -3 -21 -15 -34 -15 -16 -21 -31 -17 -45 4 -17 -6
-26 -66 -55 -65 -32 -80 -35 -158 -35 -93 0 -127 13 -116 45 6 13 16 16 42 13
19 -2 36 1 39 7 2 6 21 16 42 23 22 6 71 20 109 31 39 12 81 30 95 41 29 23
36 24 45 9z m70 -129 c50 -28 166 -46 210 -33 38 12 45 4 45 -46 0 -32 -19
-91 -28 -91 -4 0 -47 -7 -97 -15 -278 -46 -391 -55 -381 -29 3 8 0 11 -10 7
-7 -3 -14 -8 -14 -12 0 -4 -19 -5 -42 -1 -25 3 -42 11 -41 18 2 6 -3 9 -11 6
-8 -3 -17 -1 -21 5 -3 6 -15 11 -26 11 -15 0 -20 6 -17 22 2 12 9 23 17 26 8
3 11 0 7 -6 -9 -15 100 33 138 61 53 37 180 96 208 97 15 0 43 -9 63 -20z"/>
<path d="M2248 4743 c6 -2 18 -2 25 0 6 3 1 5 -13 5 -14 0 -19 -2 -12 -5z"/>
<path d="M2303 4733 c9 -2 25 -2 35 0 9 3 1 5 -18 5 -19 0 -27 -2 -17 -5z"/>
<path d="M2336 4674 c-11 -28 -7 -45 22 -87 15 -23 32 -51 38 -61 6 -11 16
-22 22 -24 7 -2 -9 27 -33 65 -35 52 -45 74 -41 96 6 30 2 36 -8 11z"/>
<path d="M2483 4558 c-48 -33 -40 -43 8 -11 49 32 72 24 77 -27 5 -51 -5 -78
-49 -125 -22 -24 -36 -46 -30 -49 5 -3 21 8 36 25 62 75 83 160 47 192 -25 23
-51 21 -89 -5z"/>
<path d="M2494 4526 c-3 -8 -1 -22 4 -32 7 -13 9 -10 8 15 -1 34 -4 38 -12 17z"/>
<path d="M2210 4510 c0 -5 7 -7 15 -4 8 4 15 8 15 10 0 2 -7 4 -15 4 -8 0 -15
-4 -15 -10z"/>
<path d="M2500 4445 c-7 -9 -11 -17 -9 -20 3 -2 10 5 17 15 14 24 10 26 -8 5z"/>
<path d="M2638 3963 c6 -2 18 -2 25 0 6 3 1 5 -13 5 -14 0 -19 -2 -12 -5z"/>
<path d="M2713 3963 c9 -2 23 -2 30 0 6 3 -1 5 -18 5 -16 0 -22 -2 -12 -5z"/>
<path d="M2461 3764 c0 -11 3 -14 6 -6 3 7 2 16 -1 19 -3 4 -6 -2 -5 -13z"/>
<path d="M2420 3615 c13 -14 26 -25 28 -25 3 0 -5 11 -18 25 -13 14 -26 25
-28 25 -3 0 5 -11 18 -25z"/>
<path d="M2753 2813 c9 -2 25 -2 35 0 9 3 1 5 -18 5 -19 0 -27 -2 -17 -5z"/>
<path d="M2358 2773 c7 -3 16 -2 19 1 4 3 -2 6 -13 5 -11 0 -14 -3 -6 -6z"/>
<path d="M2678 2653 c6 -2 18 -2 25 0 6 3 1 5 -13 5 -14 0 -19 -2 -12 -5z"/>
<path d="M2253 2593 c9 -2 23 -2 30 0 6 3 -1 5 -18 5 -16 0 -22 -2 -12 -5z"/>
<path d="M2612 2470 c0 -19 2 -27 5 -17 2 9 2 25 0 35 -3 9 -5 1 -5 -18z"/>
<path d="M2625 2430 c-3 -5 -1 -10 4 -10 6 0 11 5 11 10 0 6 -2 10 -4 10 -3 0
-8 -4 -11 -10z"/>
<path d="M2632 2350 c0 -14 2 -19 5 -12 2 6 2 18 0 25 -3 6 -5 1 -5 -13z"/>
<path d="M2512 2320 c0 -14 2 -19 5 -12 2 6 2 18 0 25 -3 6 -5 1 -5 -13z"/>
<path d="M2646 2325 c-3 -8 -1 -15 4 -15 6 0 10 7 10 15 0 8 -2 15 -4 15 -2 0
-6 -7 -10 -15z"/>
<path d="M2735 2150 c3 -5 13 -10 21 -10 8 0 12 5 9 10 -3 6 -13 10 -21 10 -8
0 -12 -4 -9 -10z"/>
<path d="M2282 2030 c0 -14 2 -19 5 -12 2 6 2 18 0 25 -3 6 -5 1 -5 -13z"/>
<path d="M2340 2020 c0 -17 17 -47 23 -40 2 3 -2 16 -10 30 -7 14 -13 18 -13
10z"/>
<path d="M2512 2010 c0 -14 4 -36 8 -50 6 -20 8 -21 8 -5 0 11 -4 34 -8 50 -7
27 -8 27 -8 5z"/>
<path d="M2532 1875 c0 -11 4 -31 8 -45 6 -20 8 -21 8 -5 0 11 -4 31 -8 45 -6
20 -8 21 -8 5z"/>
<path d="M2552 1740 c0 -14 4 -36 8 -50 6 -20 8 -21 8 -5 0 11 -4 34 -8 50 -7
27 -8 27 -8 5z"/>
<path d="M2540 1506 c0 -2 8 -10 18 -17 15 -13 16 -12 3 4 -13 16 -21 21 -21
13z"/>
<path d="M2586 1482 c-5 -8 33 -47 39 -40 2 2 -5 13 -15 26 -10 12 -21 19 -24
14z"/>
<path d="M2673 1210 c0 -25 2 -35 4 -22 2 12 2 32 0 45 -2 12 -4 2 -4 -23z"/>
<path d="M2674 675 c0 -60 1 -84 3 -52 2 32 2 81 0 110 -2 29 -3 3 -3 -58z"/>
<path d="M2570 594 c0 -10 5 -26 10 -34 8 -11 9 -7 4 15 -8 37 -14 45 -14 19z"/>
<path d="M2741 569 c-21 -26 -27 -38 -15 -31 16 8 62 72 52 72 -2 0 -18 -19
-37 -41z"/>
<path d="M2651 374 c0 -11 3 -14 6 -6 3 7 2 16 -1 19 -3 4 -6 -2 -5 -13z"/>
<path d="M2282 2445 c0 -16 2 -22 5 -12 2 9 2 23 0 30 -3 6 -5 -1 -5 -18z"/>
<path d="M2311 2424 c0 -11 3 -14 6 -6 3 7 2 16 -1 19 -3 4 -6 -2 -5 -13z"/>
<path d="M2215 180 c-3 -6 1 -7 9 -4 18 7 21 14 7 14 -6 0 -13 -4 -16 -10z"/>
<path d="M2264 165 c-10 -8 -14 -15 -8 -15 6 0 17 7 24 15 16 19 9 19 -16 0z"/>
</g>
</svg>
