<?xml version="1.0" encoding="UTF-8"?>
<!DOCTYPE svg PUBLIC "-//W3C//DTD SVG 1.1//EN" "http://www.w3.org/Graphics/SVG/1.1/DTD/svg11.dtd">
<svg xmlns="http://www.w3.org/2000/svg" version="1.1" width="408px" height="612px" style="shape-rendering:geometricPrecision; text-rendering:geometricPrecision; image-rendering:optimizeQuality; fill-rule:evenodd; clip-rule:evenodd" xmlns:xlink="http://www.w3.org/1999/xlink">
<g><path style="opacity:0.677" fill="#201f1e" d="M 208.5,34.5 C 208.611,35.1174 208.944,35.6174 209.5,36C 206.635,36.1829 203.969,36.6829 201.5,37.5C 192.884,38.478 185.217,41.6446 178.5,47C 182.539,50.9211 185.706,55.4211 188,60.5C 192.991,64.0657 197.825,67.7323 202.5,71.5C 199.956,71.8957 197.789,71.229 196,69.5C 194.489,70.564 194.323,71.8974 195.5,73.5C 192.18,69.0128 188.346,65.0128 184,61.5C 182.366,58.52 180.7,55.52 179,52.5C 178.184,51.1772 177.017,50.5106 175.5,50.5C 174.904,49.0646 174.904,47.398 175.5,45.5C 176.031,43.3763 177.365,41.8763 179.5,41C 188.547,35.4852 198.213,33.3185 208.5,34.5 Z"/></g>
<g><path style="opacity:0.843" fill="#3f3f3d" d="M 208.5,34.5 C 221.808,33.1472 231.141,38.4805 236.5,50.5C 235.566,51.5676 235.232,52.901 235.5,54.5C 228.603,40.5054 217.27,34.8388 201.5,37.5C 203.969,36.6829 206.635,36.1829 209.5,36C 208.944,35.6174 208.611,35.1174 208.5,34.5 Z"/></g>
<g><path style="opacity:0.618" fill="#3d3d3c" d="M 175.5,45.5 C 174.904,47.398 174.904,49.0646 175.5,50.5C 173.157,55.2045 171.824,60.2045 171.5,65.5C 174.487,65.9978 177.487,66.4978 180.5,67C 182.286,67.1962 183.619,68.0295 184.5,69.5C 181.783,69.9986 179.449,71.1653 177.5,73C 181.663,75.4657 181.496,76.299 177,75.5C 176.692,76.3081 176.192,76.9747 175.5,77.5C 174.481,76.3128 173.314,75.3128 172,74.5C 170.226,79.0695 167.726,83.0695 164.5,86.5C 165.494,84.6656 165.494,82.9989 164.5,81.5C 165.072,80.0267 165.905,78.6934 167,77.5C 165.805,65.6048 168.638,54.9382 175.5,45.5 Z M 171.5,69.5 C 173.527,69.3379 175.527,69.5045 177.5,70C 175.273,70.121 173.44,70.9544 172,72.5C 171.517,71.552 171.351,70.552 171.5,69.5 Z"/></g>
<g><path style="opacity:0.374" fill="#141312" d="M 220.5,79.5 C 219.508,79.6716 218.842,79.3382 218.5,78.5C 218.833,75.5 217.5,74.1667 214.5,74.5C 211.28,72.9927 208.947,73.9927 207.5,77.5C 203.046,77.2173 199.046,75.8839 195.5,73.5C 194.323,71.8974 194.489,70.564 196,69.5C 197.789,71.229 199.956,71.8957 202.5,71.5C 205.416,71.1067 208.083,70.1067 210.5,68.5C 213.014,68.5169 215.681,69.0169 218.5,70C 220.849,72.884 221.515,76.0507 220.5,79.5 Z"/></g>
<g><path style="opacity:0.675" fill="#292827" d="M 236.5,50.5 C 237.966,51.347 238.8,52.6803 239,54.5C 240.476,59.4057 241.476,64.4057 242,69.5C 246.376,68.4143 249.876,69.7476 252.5,73.5C 252.427,75.0269 253.094,76.0269 254.5,76.5C 255.972,83.4837 254.306,89.6504 249.5,95C 244.309,98.8844 238.809,99.3844 233,96.5C 231.862,96.9891 230.695,97.3225 229.5,97.5C 231.129,95.8041 230.796,94.8041 228.5,94.5C 230.11,91.8112 230.943,88.8112 231,85.5C 233.333,81.1667 235.667,76.8333 238,72.5C 238.667,69.5 238.667,66.5 238,63.5C 237.151,60.4786 236.317,57.4786 235.5,54.5C 235.232,52.901 235.566,51.5676 236.5,50.5 Z M 241.5,72.5 C 248.059,72.2784 251.392,75.4451 251.5,82C 249.792,92.1791 244.126,95.6791 234.5,92.5C 234.069,91.7065 233.735,90.8732 233.5,90C 236.315,84.2047 238.982,78.3713 241.5,72.5 Z"/></g>
<g><path style="opacity:0.055" fill="#bbbaba" d="M 252.5,73.5 C 253.906,73.9731 254.573,74.9731 254.5,76.5C 253.094,76.0269 252.427,75.0269 252.5,73.5 Z"/></g>
<g><path style="opacity:0.395" fill="#232322" d="M 214.5,74.5 C 213.064,75.4286 211.731,76.5952 210.5,78C 211.12,80.4728 211.786,82.9728 212.5,85.5C 215.3,83.7115 217.3,81.3782 218.5,78.5C 218.842,79.3382 219.508,79.6716 220.5,79.5C 220.03,82.7452 218.697,85.5786 216.5,88C 218.136,91.2691 220.469,93.9358 223.5,96C 225.189,95.8657 226.856,95.3657 228.5,94.5C 230.796,94.8041 231.129,95.8041 229.5,97.5C 228.026,98.4363 227.026,99.7697 226.5,101.5C 225.686,103.631 225.186,105.964 225,108.5C 223.926,105.5 223.093,102.5 222.5,99.5C 219.224,97.0531 216.39,94.0531 214,90.5C 211.627,93.3022 208.793,93.9689 205.5,92.5C 204.417,91.635 204.251,90.635 205,89.5C 206.664,89.1884 208.497,88.3551 210.5,87C 209.552,86.5172 208.552,86.3505 207.5,86.5C 208.541,83.4578 208.541,80.4578 207.5,77.5C 208.947,73.9927 211.28,72.9927 214.5,74.5 Z"/></g>
<g><path style="opacity:0.608" fill="#242323" d="M 164.5,81.5 C 165.494,82.9989 165.494,84.6656 164.5,86.5C 164.611,87.1174 164.944,87.6174 165.5,88C 168.319,88.9831 170.986,89.4831 173.5,89.5C 171.914,91.1727 171.247,93.1727 171.5,95.5C 173.912,95.244 175.579,96.244 176.5,98.5C 174.851,99.1476 173.518,100.148 172.5,101.5C 174.071,103.882 174.904,106.549 175,109.5C 178.628,112.806 182.794,113.473 187.5,111.5C 187.918,112.222 188.584,112.722 189.5,113C 188.944,113.383 188.611,113.883 188.5,114.5C 182.63,116.298 177.13,115.631 172,112.5C 170.547,105.789 168.881,99.1219 167,92.5C 160.659,90.136 159.826,86.4694 164.5,81.5 Z"/></g>
<g><path style="opacity:0.333" fill="#383635" d="M 200.5,100.5 C 202.106,101.359 203.773,101.526 205.5,101C 204.307,103.027 202.64,104.527 200.5,105.5C 199.692,105.192 199.025,104.692 198.5,104C 199.305,102.887 199.972,101.721 200.5,100.5 Z"/></g>
<g><path style="opacity:0.673" fill="#353433" d="M 222.5,99.5 C 223.093,102.5 223.926,105.5 225,108.5C 225.186,105.964 225.686,103.631 226.5,101.5C 226.425,105.897 226.925,110.23 228,114.5C 232.946,123.055 236.779,132.055 239.5,141.5C 238.761,141.369 238.094,141.536 237.5,142C 238.337,143.011 238.67,144.178 238.5,145.5C 235.707,138.581 232.374,131.914 228.5,125.5C 217.026,129.398 207.026,135.564 198.5,144C 196.283,145.275 193.949,146.275 191.5,147C 185.957,153.039 180.624,159.205 175.5,165.5C 175.5,164.167 174.833,163.5 173.5,163.5C 180.747,153.9 188.08,144.233 195.5,134.5C 196.404,135.209 196.737,136.209 196.5,137.5C 196.328,138.492 196.662,139.158 197.5,139.5C 197.833,138.833 198.167,138.167 198.5,137.5C 199.167,137.5 199.5,137.167 199.5,136.5C 199.5,136.167 199.5,135.833 199.5,135.5C 202.012,136.596 204.012,135.762 205.5,133C 212.506,129.71 219.34,126.21 226,122.5C 226.333,122.833 226.667,123.167 227,123.5C 226.024,119.174 224.691,114.841 223,110.5C 222.501,106.848 222.335,103.182 222.5,99.5 Z M 196.5,137.5 C 197.167,137.5 197.833,137.5 198.5,137.5C 198.167,138.167 197.833,138.833 197.5,139.5C 196.662,139.158 196.328,138.492 196.5,137.5 Z"/></g>
<g><path style="opacity:0.663" fill="#403f3c" d="M 187.5,111.5 C 190.617,111.642 193.117,112.976 195,115.5C 196.95,119.732 198.617,124.066 200,128.5C 200.556,130.885 200.39,133.218 199.5,135.5C 199.5,135.833 199.5,136.167 199.5,136.5C 198.833,136.5 198.5,136.833 198.5,137.5C 197.833,137.5 197.167,137.5 196.5,137.5C 196.737,136.209 196.404,135.209 195.5,134.5C 196.606,126.696 194.272,120.029 188.5,114.5C 188.611,113.883 188.944,113.383 189.5,113C 188.584,112.722 187.918,112.222 187.5,111.5 Z"/></g>
<g><path style="opacity:0.522" fill="#545351" d="M 211.5,136.5 C 217.176,136.334 222.843,136.501 228.5,137C 230.618,137.26 232.284,138.26 233.5,140C 233,140.5 232.5,141 232,141.5C 225.751,138.558 219.251,137.892 212.5,139.5C 210.197,139.124 209.863,138.124 211.5,136.5 Z"/></g>
<g><path style="opacity:0.683" fill="#2a2a29" d="M 239.5,141.5 C 242.457,146.542 244.123,152.042 244.5,158C 244.733,167.326 244.233,176.826 243,186.5C 242.299,190.109 241.132,193.442 239.5,196.5C 239.737,195.209 239.404,194.209 238.5,193.5C 238.5,192.833 238.5,192.167 238.5,191.5C 238.5,190.833 238.5,190.167 238.5,189.5C 239.434,188.432 239.768,187.099 239.5,185.5C 240.434,184.432 240.768,183.099 240.5,181.5C 240.167,180.167 239.833,180.167 239.5,181.5C 239.44,182.043 239.107,182.376 238.5,182.5C 237.571,181.311 237.238,179.978 237.5,178.5C 237.408,173.137 238.741,168.304 241.5,164C 240.545,157.811 239.545,151.644 238.5,145.5C 238.67,144.178 238.337,143.011 237.5,142C 238.094,141.536 238.761,141.369 239.5,141.5 Z"/></g>
<g><path style="opacity:0.597" fill="#282726" d="M 216.5,187.5 C 214.167,188.167 211.833,188.833 209.5,189.5C 207.648,190.089 205.815,190.756 204,191.5C 203.5,202.495 203.333,213.495 203.5,224.5C 202.065,223.087 201.065,221.42 200.5,219.5C 200.515,206.342 200.015,193.009 199,179.5C 198.626,178.584 198.126,177.75 197.5,177C 198.269,170.549 198.936,164.049 199.5,157.5C 200.675,157.281 201.675,157.614 202.5,158.5C 201.727,161.465 201.061,164.465 200.5,167.5C 201.303,174.165 202.136,180.831 203,187.5C 207.288,187.381 211.788,187.381 216.5,187.5 Z"/></g>
<g><path style="opacity:0.692" fill="#2f2f2e" d="M 173.5,163.5 C 174.833,163.5 175.5,164.167 175.5,165.5C 171.412,170.088 167.912,175.088 165,180.5C 163.274,189.6 163.774,198.6 166.5,207.5C 165.065,208.913 164.065,210.58 163.5,212.5C 162.656,206.453 161.489,200.453 160,194.5C 159.563,181.964 164.063,171.631 173.5,163.5 Z"/></g>
<g><path style="opacity:0.595" fill="#595957" d="M 237.5,178.5 C 237.238,179.978 237.571,181.311 238.5,182.5C 239.107,182.376 239.44,182.043 239.5,181.5C 239.833,181.5 240.167,181.5 240.5,181.5C 240.768,183.099 240.434,184.432 239.5,185.5C 239.768,187.099 239.434,188.432 238.5,189.5C 237.266,189.285 237.266,189.952 238.5,191.5C 238.5,192.167 238.5,192.833 238.5,193.5C 238.167,193.5 237.833,193.5 237.5,193.5C 237.5,192.833 237.167,192.5 236.5,192.5C 236.771,190.62 236.104,189.287 234.5,188.5C 235.13,184.952 236.13,181.619 237.5,178.5 Z"/></g>
<g><path style="opacity:0.728" fill="#282827" d="M 216.5,187.5 C 222.328,187.05 227.995,187.716 233.5,189.5C 234.107,189.376 234.44,189.043 234.5,188.5C 236.104,189.287 236.771,190.62 236.5,192.5C 236.461,194.224 236.794,194.557 237.5,193.5C 237.833,193.5 238.167,193.5 238.5,193.5C 239.404,194.209 239.737,195.209 239.5,196.5C 235.633,209.28 232.466,222.28 230,235.5C 229.68,241.228 230.18,246.895 231.5,252.5C 231.44,253.043 231.107,253.376 230.5,253.5C 229.818,252.757 229.151,252.091 228.5,251.5C 227.778,251.082 227.278,250.416 227,249.5C 226.427,251.641 225.594,253.641 224.5,255.5C 223.5,254.167 222.5,254.167 221.5,255.5C 226.294,234.656 230.294,213.656 233.5,192.5C 225.693,190.078 217.693,189.078 209.5,189.5C 211.833,188.833 214.167,188.167 216.5,187.5 Z"/></g>
<g><path style="opacity:0.631" fill="#1d1c1b" d="M 166.5,207.5 C 167.414,222.142 167.747,236.809 167.5,251.5C 166.675,255.647 166.175,259.981 166,264.5C 165.667,264.167 165.333,263.833 165,263.5C 164.827,257.652 164.327,251.985 163.5,246.5C 163.5,240.167 163.5,233.833 163.5,227.5C 164.833,224.5 164.833,221.5 163.5,218.5C 162.427,216.653 162.427,214.653 163.5,212.5C 164.065,210.58 165.065,208.913 166.5,207.5 Z"/></g>
<g><path style="opacity:0.043" fill="#a8a8a5" d="M 163.5,218.5 C 164.833,221.5 164.833,224.5 163.5,227.5C 162.583,224.713 162.583,221.713 163.5,218.5 Z"/></g>
<g><path style="opacity:0.744" fill="#343333" d="M 200.5,219.5 C 201.065,221.42 202.065,223.087 203.5,224.5C 203.666,229.179 203.499,233.845 203,238.5C 199.493,248.515 196.326,258.515 193.5,268.5C 193.598,266.447 192.931,264.78 191.5,263.5C 194.018,253.749 196.851,244.082 200,234.5C 200.034,229.411 200.2,224.411 200.5,219.5 Z"/></g>
<g><path style="opacity:0.714" fill="#31302e" d="M 224.5,255.5 C 222.456,262.59 220.122,269.59 217.5,276.5C 220.833,277.167 224.167,277.833 227.5,278.5C 223.519,279.021 219.519,279.354 215.5,279.5C 210.537,290.008 205.704,300.675 201,311.5C 200.03,318.963 199.196,326.296 198.5,333.5C 198.306,329.995 197.306,329.662 195.5,332.5C 196.559,327.989 196.559,323.489 195.5,319C 195.921,316.815 196.421,314.649 197,312.5C 206.243,293.931 214.409,274.931 221.5,255.5C 222.5,254.167 223.5,254.167 224.5,255.5 Z"/></g>
<g><path style="opacity:0.681" fill="#363635" d="M 163.5,246.5 C 164.327,251.985 164.827,257.652 165,263.5C 165.333,263.833 165.667,264.167 166,264.5C 166.175,259.981 166.675,255.647 167.5,251.5C 167.553,261.512 167.887,271.512 168.5,281.5C 175.413,281.985 181.746,280.985 187.5,278.5C 189.245,273.6 190.578,268.6 191.5,263.5C 192.931,264.78 193.598,266.447 193.5,268.5C 190.807,281.606 187.64,294.606 184,307.5C 178.404,315.124 174.237,323.457 171.5,332.5C 173.02,335.598 173.854,338.931 174,342.5C 175.145,342.381 176.312,342.048 177.5,341.5C 177.5,347.833 177.5,354.167 177.5,360.5C 176.675,356.353 176.175,352.019 176,347.5C 175.023,346.226 174.189,346.226 173.5,347.5C 172.566,348.568 172.232,349.901 172.5,351.5C 171.448,351.649 170.448,351.483 169.5,351C 170.823,350.184 171.489,349.017 171.5,347.5C 171.875,344.603 171.375,341.937 170,339.5C 169.536,340.094 169.369,340.761 169.5,341.5C 168.532,343.607 168.198,345.941 168.5,348.5C 167.833,345.5 167.167,342.5 166.5,339.5C 168.597,328.758 170.264,317.925 171.5,307C 165.211,287.333 162.545,267.167 163.5,246.5 Z M 183.5,282.5 C 184.707,283.189 186.041,283.355 187.5,283C 184.919,291.892 182.086,300.725 179,309.5C 176.643,311.923 174.643,314.59 173,317.5C 173.505,312.218 173.505,306.884 173,301.5C 171.668,295.843 170.501,290.177 169.5,284.5C 174.414,284.638 179.081,283.972 183.5,282.5 Z M 171.5,347.5 C 170.609,348.11 169.609,348.443 168.5,348.5C 168.198,345.941 168.532,343.607 169.5,341.5C 169.369,340.761 169.536,340.094 170,339.5C 171.375,341.937 171.875,344.603 171.5,347.5 Z"/></g>
<g><path style="opacity:0.768" fill="#363634" d="M 228.5,251.5 C 229.151,252.091 229.818,252.757 230.5,253.5C 231.107,253.376 231.44,253.043 231.5,252.5C 239.529,266.399 245.196,281.232 248.5,297C 248.859,306.613 246.693,315.78 242,324.5C 240.483,326.24 238.983,327.906 237.5,329.5C 237.027,328.094 236.027,327.427 234.5,327.5C 244.803,314.718 247.303,300.385 242,284.5C 241.044,281.623 239.711,278.956 238,276.5C 234.636,277.739 231.136,278.406 227.5,278.5C 224.167,277.833 220.833,277.167 217.5,276.5C 224.073,276.186 230.406,274.852 236.5,272.5C 233.047,265.81 230.381,258.81 228.5,251.5 Z"/></g>
<g><path style="opacity:0.686" fill="#41413f" d="M 234.5,327.5 C 236.027,327.427 237.027,328.094 237.5,329.5C 236.069,331.189 235.236,333.189 235,335.5C 234.587,348.002 234.754,360.502 235.5,373C 235.509,382.7 234.843,392.2 233.5,401.5C 234.044,397.36 233.044,396.693 230.5,399.5C 231.409,377.839 231.575,356.172 231,334.5C 231.653,331.861 232.82,329.527 234.5,327.5 Z"/></g>
<g><path style="opacity:0.789" fill="#242423" d="M 198.5,333.5 C 197.227,340.77 196.394,348.104 196,355.5C 195.861,358.445 194.694,360.779 192.5,362.5C 190.708,362.634 189.042,362.301 187.5,361.5C 187.5,360.167 187.5,358.833 187.5,357.5C 188.166,352.983 188.833,348.317 189.5,343.5C 190.429,344.689 190.762,346.022 190.5,347.5C 190.833,355.5 191.167,355.5 191.5,347.5C 191.5,346.833 191.5,346.167 191.5,345.5C 192.302,346.952 192.802,348.618 193,350.5C 193.711,348.101 193.544,345.768 192.5,343.5C 192.846,342.304 193.346,342.304 194,343.5C 194.936,339.886 195.436,336.22 195.5,332.5C 197.306,329.662 198.306,329.995 198.5,333.5 Z"/></g>
<g><path style="opacity:0.843" fill="#878685" d="M 191.5,345.5 C 191.5,346.167 191.5,346.833 191.5,347.5C 191.167,347.5 190.833,347.5 190.5,347.5C 190.762,346.022 190.429,344.689 189.5,343.5C 188.833,348.317 188.166,352.983 187.5,357.5C 187.334,352.489 187.501,347.489 188,342.5C 188.71,341.027 189.876,340.36 191.5,340.5C 191.5,342.167 191.5,343.833 191.5,345.5 Z"/></g>
<g><path style="opacity:0.689" fill="#363634" d="M 166.5,339.5 C 167.167,342.5 167.833,345.5 168.5,348.5C 169.609,348.443 170.609,348.11 171.5,347.5C 171.489,349.017 170.823,350.184 169.5,351C 170.448,351.483 171.448,351.649 172.5,351.5C 172.232,349.901 172.566,348.568 173.5,347.5C 173.961,353.303 175.127,358.97 177,364.5C 177.49,363.207 177.657,361.873 177.5,360.5C 177.5,354.167 177.5,347.833 177.5,341.5C 179.314,340.26 180.314,340.927 180.5,343.5C 179.662,350.821 179.829,358.154 181,365.5C 182.12,357.357 182.953,349.19 183.5,341C 183.833,340.833 184.167,340.667 184.5,340.5C 184.833,341.333 185.167,342.167 185.5,343C 184.261,348.857 184.427,354.69 186,360.5C 186.383,361.056 186.883,361.389 187.5,361.5C 189.042,362.301 190.708,362.634 192.5,362.5C 190.111,363.054 188.445,364.554 187.5,367C 185.277,367.566 183.277,368.4 181.5,369.5C 180.833,371.167 180.167,372.833 179.5,374.5C 178.694,373.003 178.028,371.336 177.5,369.5C 175.291,368.937 173.791,367.604 173,365.5C 171.97,361.227 171.303,356.894 171,352.5C 168.81,353.584 167.144,352.917 166,350.5C 165.421,346.797 165.588,343.131 166.5,339.5 Z M 177.5,360.5 C 177.657,361.873 177.49,363.207 177,364.5C 175.127,358.97 173.961,353.303 173.5,347.5C 174.189,346.226 175.023,346.226 176,347.5C 176.175,352.019 176.675,356.353 177.5,360.5 Z"/></g>
<g><path style="opacity:0.768" fill="#383736" d="M 181.5,369.5 C 186.653,388.482 191.82,407.482 197,426.5C 202.816,435.894 205.649,446.228 205.5,457.5C 204.167,457.5 203.5,458.167 203.5,459.5C 202.057,452.293 200.557,444.959 199,437.5C 196.287,432.705 193.954,427.705 192,422.5C 187.717,406.493 183.551,390.493 179.5,374.5C 180.167,372.833 180.833,371.167 181.5,369.5 Z"/></g>
<g><path style="opacity:0.704" fill="#323130" d="M 233.5,401.5 C 234.004,408.201 234.838,414.868 236,421.5C 239.02,431.055 241.52,440.722 243.5,450.5C 242.711,450.783 242.044,451.283 241.5,452C 242.406,453.699 242.739,455.533 242.5,457.5C 239.014,443.522 235.181,429.522 231,415.5C 230.501,410.177 230.334,404.844 230.5,399.5C 233.044,396.693 234.044,397.36 233.5,401.5 Z"/></g>
<g><path style="opacity:0.705" fill="#2d2c2c" d="M 205.5,457.5 C 209.574,483.078 212.074,508.744 213,534.5C 213.75,535.126 214.584,535.626 215.5,536C 221.825,536.5 228.158,536.666 234.5,536.5C 234.938,536.435 235.272,536.601 235.5,537C 234.142,537.934 232.808,538.768 231.5,539.5C 231.12,540.133 230.787,540.8 230.5,541.5C 224.528,540.147 218.528,539.313 212.5,539C 213.167,539.333 213.833,539.667 214.5,540C 212.562,543.906 210.562,547.739 208.5,551.5C 208.5,550.167 208.5,548.833 208.5,547.5C 206.833,547.5 205.167,547.5 203.5,547.5C 204.973,545.605 206.64,543.939 208.5,542.5C 209.117,542.389 209.617,542.056 210,541.5C 210.821,534.321 210.655,527.321 209.5,520.5C 207.202,500.329 205.202,479.995 203.5,459.5C 203.5,458.167 204.167,457.5 205.5,457.5 Z"/></g>
<g><path style="opacity:0.694" fill="#343332" d="M 243.5,450.5 C 247.689,469.639 247.022,488.639 241.5,507.5C 240.262,505.786 239.595,503.786 239.5,501.5C 242.185,486.978 243.185,472.311 242.5,457.5C 242.739,455.533 242.406,453.699 241.5,452C 242.044,451.283 242.711,450.783 243.5,450.5 Z"/></g>
<g><path style="opacity:0.732" fill="#313130" d="M 239.5,501.5 C 239.595,503.786 240.262,505.786 241.5,507.5C 238.778,522.721 237.611,538.054 238,553.5C 239.167,558.504 240.334,563.504 241.5,568.5C 240.803,571.29 239.803,573.957 238.5,576.5C 237.378,577.63 236.044,578.297 234.5,578.5C 234.611,577.883 234.944,577.383 235.5,577C 233.866,576.506 232.199,576.34 230.5,576.5C 234.746,575.588 237.412,572.922 238.5,568.5C 237.436,564.808 236.269,561.141 235,557.5C 235.093,551.708 234.259,546.208 232.5,541C 234.932,539.913 234.598,539.413 231.5,539.5C 232.808,538.768 234.142,537.934 235.5,537C 235.272,536.601 234.938,536.435 234.5,536.5C 235.215,524.562 236.882,512.896 239.5,501.5 Z"/></g>
<g><path style="opacity:0.451" fill="#636361" d="M 209.5,520.5 C 210.655,527.321 210.821,534.321 210,541.5C 209.617,542.056 209.117,542.389 208.5,542.5C 209.43,535.223 209.764,527.89 209.5,520.5 Z"/></g>
<g><path style="opacity:0.28" fill="#141413" d="M 203.5,547.5 C 205.167,547.5 206.833,547.5 208.5,547.5C 208.5,548.833 208.5,550.167 208.5,551.5C 204.864,556.314 200.197,559.648 194.5,561.5C 193.209,561.737 192.209,561.404 191.5,560.5C 192.058,559.21 193.058,558.377 194.5,558C 191.661,557.556 189.328,558.39 187.5,560.5C 186.178,560.67 185.011,560.337 184,559.5C 183.487,560.527 182.987,561.527 182.5,562.5C 180.833,562.5 179.167,562.5 177.5,562.5C 177.167,561.167 176.833,561.167 176.5,562.5C 175.5,562.5 174.5,562.5 173.5,562.5C 172.048,561.287 170.714,561.62 169.5,563.5C 167.739,562.965 166.406,561.965 165.5,560.5C 172.089,560.103 178.422,558.603 184.5,556C 191.085,553.612 197.418,550.779 203.5,547.5 Z M 191.5,560.5 C 190.167,560.5 188.833,560.5 187.5,560.5C 189.328,558.39 191.661,557.556 194.5,558C 193.058,558.377 192.058,559.21 191.5,560.5 Z"/></g>
<g><path style="opacity:0.42" fill="#383635" d="M 229.5,545.5 C 233.31,550.964 232.81,555.964 228,560.5C 227.308,559.975 226.808,559.308 226.5,558.5C 228.138,554.312 229.138,549.978 229.5,545.5 Z"/></g>
<g><path style="opacity:0.595" fill="#21211f" d="M 165.5,560.5 C 166.406,561.965 167.739,562.965 169.5,563.5C 170.714,561.62 172.048,561.287 173.5,562.5C 170.903,562.721 170.903,563.221 173.5,564C 170.833,565 168.167,566 165.5,567C 166.333,567.167 167.167,567.333 168,567.5C 172.972,565.916 177.805,564.249 182.5,562.5C 184.553,562.598 186.22,561.931 187.5,560.5C 188.833,560.5 190.167,560.5 191.5,560.5C 192.209,561.404 193.209,561.737 194.5,561.5C 188.903,563.714 183.403,566.38 178,569.5C 177.282,568.549 176.449,568.383 175.5,569C 174.433,571.427 175.1,571.927 177.5,570.5C 177.455,573.077 178.455,575.077 180.5,576.5C 180.389,577.117 180.056,577.617 179.5,578C 182.167,578.167 184.833,578.333 187.5,578.5C 201.314,577.33 215.647,576.664 230.5,576.5C 232.199,576.34 233.866,576.506 235.5,577C 234.944,577.383 234.611,577.883 234.5,578.5C 230.081,579.972 225.414,580.638 220.5,580.5C 216.5,579.167 212.5,579.167 208.5,580.5C 206.876,580.36 205.71,581.027 205,582.5C 202.959,581.248 200.625,580.581 198,580.5C 195.576,580.53 193.243,580.863 191,581.5C 183.913,580.685 176.747,580.185 169.5,580C 166.861,579.347 164.527,578.18 162.5,576.5C 161.058,575.18 160.392,573.514 160.5,571.5C 161.895,570.352 161.728,569.352 160,568.5C 158.832,563.827 160.665,561.16 165.5,560.5 Z M 173.5,562.5 C 174.5,562.5 175.5,562.5 176.5,562.5C 176.833,563.833 177.167,563.833 177.5,562.5C 179.167,562.5 180.833,562.5 182.5,562.5C 177.805,564.249 172.972,565.916 168,567.5C 167.167,567.333 166.333,567.167 165.5,567C 168.167,566 170.833,565 173.5,564C 170.903,563.221 170.903,562.721 173.5,562.5 Z"/></g>
<g><path style="opacity:0.843" fill="#545350" d="M 177.5,570.5 C 179.245,571.806 181.245,572.806 183.5,573.5C 182.66,574.735 181.66,575.735 180.5,576.5C 178.455,575.077 177.455,573.077 177.5,570.5 Z"/></g>
<g><path style="opacity:0.235" fill="#9b9b9b" d="M 160.5,571.5 C 160.392,573.514 161.058,575.18 162.5,576.5C 161.504,576.586 160.671,576.252 160,575.5C 159.235,573.934 159.402,572.601 160.5,571.5 Z"/></g>
<g><path style="opacity:0.059" fill="#7f7f7f" d="M 208.5,580.5 C 212.5,579.167 216.5,579.167 220.5,580.5C 216.659,581.496 212.659,581.496 208.5,580.5 Z"/></g>
</svg>
