<?xml version="1.0" standalone="no"?>
<!DOCTYPE svg PUBLIC "-//W3C//DTD SVG 20010904//EN"
 "http://www.w3.org/TR/2001/REC-SVG-20010904/DTD/svg10.dtd">
<svg version="1.0" xmlns="http://www.w3.org/2000/svg"
 width="408.000000pt" height="612.000000pt" viewBox="0 0 408.000000 612.000000"
 preserveAspectRatio="xMidYMid meet">

<g transform="translate(0.000000,612.000000) scale(0.100000,-0.100000)"
fill="#000000" stroke="none">
<path d="M1930 5740 c-74 -27 -120 -66 -154 -134 -26 -51 -30 -68 -30 -149 -1
-78 -4 -94 -20 -106 -16 -12 -18 -24 -14 -82 6 -74 30 -128 66 -144 28 -12 45
-86 40 -180 l-3 -69 -50 -26 c-27 -14 -102 -48 -165 -74 -288 -122 -340 -169
-384 -342 -20 -82 -53 -366 -65 -564 -6 -91 -15 -181 -21 -200 -5 -19 -15 -95
-22 -167 -11 -126 -11 -145 17 -360 23 -182 28 -265 28 -413 -2 -281 16 -325
161 -399 46 -24 73 -31 91 -27 24 6 25 4 25 -36 0 -24 14 -135 30 -247 27
-184 29 -218 24 -360 -13 -320 -2 -637 31 -881 12 -91 19 -183 16 -228 -1 -7
-32 -46 -71 -87 -38 -41 -70 -82 -70 -93 0 -46 95 -97 203 -108 64 -6 65 -6
88 26 13 18 34 36 46 41 14 5 26 22 32 47 6 22 25 51 46 70 32 27 35 35 30 64
-3 19 1 59 10 93 21 82 36 331 41 705 3 251 8 339 23 430 11 63 22 149 26 190
10 112 32 268 60 425 13 77 25 153 25 168 0 16 4 26 10 22 6 -3 10 -19 10 -34
0 -15 15 -110 34 -211 19 -102 42 -246 51 -320 9 -74 22 -173 30 -220 27 -160
28 -195 29 -670 1 -261 6 -508 10 -548 8 -66 12 -76 41 -98 23 -17 36 -39 44
-69 7 -27 18 -46 29 -49 10 -4 29 -20 41 -37 l23 -31 71 7 c118 12 187 51 187
107 0 22 -14 42 -54 83 -55 54 -95 115 -76 115 5 0 10 22 10 49 0 27 11 105
25 174 55 277 79 631 52 772 -23 125 -10 310 49 703 4 24 10 32 26 32 28 0
168 76 195 106 12 13 32 54 43 91 18 60 19 74 9 150 -6 46 -8 103 -5 126 3 23
10 87 15 142 5 55 19 163 31 240 29 177 32 409 7 500 -14 53 -24 172 -31 360
-4 115 -28 320 -46 396 -42 178 -98 241 -275 313 -66 27 -170 73 -232 102
l-113 53 0 71 c0 87 23 162 53 175 32 14 59 77 65 150 4 56 2 64 -15 74 -18 9
-21 21 -21 98 0 158 -52 243 -178 292 -71 27 -160 27 -234 1z m255 -30 c99
-48 152 -153 142 -278 -8 -106 -24 -95 -29 20 -7 138 -37 207 -108 243 -25 12
-240 32 -228 20 3 -4 54 -10 112 -14 103 -7 108 -9 141 -41 55 -53 65 -87 75
-237 4 -74 7 -145 5 -157 -2 -11 -6 -43 -10 -71 -17 -133 -45 -186 -133 -247
-50 -35 -125 -43 -182 -21 -39 16 -114 84 -135 124 -8 14 -21 68 -30 120 -18
100 -15 286 6 380 11 51 56 111 103 140 17 10 26 19 19 19 -23 0 -97 -66 -116
-104 -19 -35 -23 -62 -37 -246 -3 -40 -19 32 -19 91 -1 96 22 162 74 214 82
82 233 101 350 45z m-415 -385 c10 -12 10 -21 1 -41 -6 -14 -11 -33 -10 -42 0
-14 2 -14 8 2 6 15 10 3 18 -42 8 -49 7 -62 -3 -62 -8 0 -20 10 -28 23 -19 28
-41 139 -33 160 8 21 31 22 47 2z m595 -4 c12 -40 -33 -181 -59 -181 -12 0
-14 10 -9 53 6 54 23 90 23 47 0 -13 3 -20 6 -17 4 4 1 26 -6 51 -7 24 -9 49
-5 55 10 18 43 13 50 -8z m-400 -411 c15 -6 52 -10 84 -10 61 0 101 19 164 78
l27 26 0 -40 c0 -48 18 -114 30 -114 21 0 9 -41 -22 -75 -67 -77 -187 -104
-303 -70 -94 27 -164 112 -125 151 6 6 14 43 17 82 l6 72 48 -45 c27 -25 60
-50 74 -55z m-161 -101 c14 -73 119 -129 241 -129 109 0 211 53 241 127 22 51
51 39 39 -16 -9 -41 -69 -99 -134 -130 -48 -21 -70 -25 -151 -26 -88 0 -101 3
-163 33 -69 34 -110 76 -123 126 -5 19 -2 31 7 37 25 16 36 10 43 -22z m-1
-104 c111 -101 318 -111 449 -23 45 31 88 90 88 121 0 11 49 -6 186 -63 102
-43 188 -80 190 -83 2 -2 -3 -23 -11 -47 -8 -23 -15 -52 -14 -64 0 -17 27 63
29 87 1 17 30 5 55 -24 68 -81 98 -181 115 -378 10 -110 9 -135 -2 -142 -10
-7 -9 -9 5 -9 12 0 17 -8 17 -30 0 -16 -2 -30 -4 -30 -2 0 -39 -9 -82 -20 -44
-11 -107 -23 -141 -27 -62 -6 -63 -5 -63 20 0 23 5 26 63 36 65 12 129 29 112
30 -6 1 -42 -6 -80 -14 -103 -22 -99 -23 -91 40 5 43 15 66 46 107 22 29 40
58 39 63 0 6 -6 1 -12 -9 -7 -10 -22 -31 -35 -45 -20 -22 -22 -23 -18 -6 19
80 51 313 44 321 -3 2 -12 -50 -22 -116 -9 -66 -26 -154 -36 -196 -11 -43 -20
-105 -20 -139 0 -33 -7 -114 -15 -179 -20 -146 -23 -258 -11 -402 9 -111 9
-112 -15 -127 -62 -41 -440 -98 -599 -91 -105 4 -266 28 -383 55 -109 26 -113
31 -101 148 19 192 3 561 -32 737 -13 67 -24 135 -24 153 0 17 -4 31 -8 31 -5
0 -3 -42 4 -92 7 -51 13 -97 14 -103 0 -17 -28 20 -55 73 -27 51 -41 69 -28
35 10 -25 62 -113 84 -142 26 -33 27 -130 2 -132 -17 -1 -17 -2 0 -6 10 -3 17
-14 17 -30 0 -25 -1 -26 -57 -19 -61 7 -199 41 -221 55 -20 12 -5 61 16 55 15
-5 15 -4 1 5 -13 8 -14 21 -7 78 38 296 56 359 121 430 22 24 42 41 45 39 2
-3 12 4 21 14 9 11 92 52 186 93 l170 73 12 -35 c7 -20 32 -54 56 -76z m-514
-726 c41 -10 96 -19 123 -19 59 0 58 8 19 -182 -17 -81 -32 -195 -36 -263 -4
-66 -18 -185 -31 -265 -14 -80 -28 -206 -31 -280 l-5 -135 46 -70 c52 -78 66
-117 67 -190 0 -27 4 -71 8 -97 10 -60 2 -75 -28 -51 -23 19 -51 109 -51 168
0 21 -3 26 -11 18 -17 -17 6 -154 38 -225 35 -79 20 -96 -33 -38 -48 52 -59
71 -79 139 -9 29 -18 51 -20 49 -12 -12 39 -139 71 -176 42 -49 33 -54 -24
-13 -30 23 -45 44 -61 88 -33 89 -43 114 -47 111 -2 -2 10 -41 26 -86 16 -45
25 -82 20 -82 -13 0 -36 46 -50 100 -6 25 -18 50 -27 57 -14 11 -14 26 -5 125
7 72 7 128 2 153 -5 22 -10 72 -10 110 0 39 -9 137 -20 219 -23 173 -25 350
-5 456 8 41 19 140 25 220 14 183 16 194 38 185 9 -4 50 -15 91 -26z m1624
-36 c4 -38 7 -100 7 -138 0 -39 8 -98 17 -130 28 -98 24 -357 -10 -572 -15
-95 -27 -195 -27 -222 0 -27 -5 -62 -11 -78 -7 -19 -7 -58 2 -135 10 -95 10
-114 -6 -173 -10 -36 -24 -70 -31 -76 -9 -8 -9 1 2 38 8 26 13 52 11 57 -2 6
-9 -12 -16 -39 -13 -52 -35 -95 -50 -95 -5 0 -3 17 5 38 7 20 13 46 13 57 -1
11 -7 -2 -14 -30 -10 -37 -25 -60 -56 -87 -50 -46 -71 -50 -35 -8 14 17 30 50
36 73 6 23 17 64 25 91 7 27 10 45 5 40 -5 -5 -17 -38 -26 -74 -9 -36 -22 -76
-29 -90 -19 -36 -72 -83 -84 -76 -15 10 -14 33 2 43 33 20 61 216 37 253 -8
12 -10 8 -9 -15 1 -53 -20 -158 -35 -173 -25 -26 -36 -5 -31 61 16 196 12 182
100 324 30 48 30 49 29 188 -1 84 -8 178 -18 235 -10 52 -21 169 -26 260 -5
100 -17 205 -30 265 -12 55 -25 121 -29 147 -8 45 -7 46 22 52 16 3 44 6 61 7
17 0 65 11 106 23 41 13 78 24 81 25 3 0 9 -29 12 -66z m-264 -213 c11 -54 22
-153 25 -230 3 -74 14 -193 24 -265 39 -258 37 -362 -10 -431 l-23 -34 -6 73
c-4 39 -10 108 -13 153 -3 45 -11 105 -17 135 -6 30 -12 88 -14 129 -1 41 -6
122 -10 180 -11 151 -11 316 -1 385 10 69 10 69 45 -95z m-1171 35 c7 -59 6
-122 0 -185 -6 -52 -12 -126 -14 -165 -6 -94 -11 -133 -34 -310 -11 -82 -23
-194 -26 -248 l-6 -99 -26 39 c-26 36 -27 44 -26 153 1 73 12 172 28 270 15
85 29 207 32 270 4 94 50 377 60 368 1 -2 7 -44 12 -93z m1131 -463 c1 -7 -3
-10 -9 -7 -5 3 -10 18 -9 33 0 24 1 25 9 7 5 -11 9 -26 9 -33z m-22 -19 l5
-39 -73 -22 c-157 -46 -205 -51 -212 -24 -3 9 -5 -7 -6 -35 -1 -51 -13 -69
-25 -38 -3 8 -8 44 -12 80 -6 56 -5 65 10 65 10 0 16 -9 17 -22 1 -23 1 -23 8
1 6 21 18 26 117 46 61 12 120 27 130 33 25 14 34 3 41 -45z m-1116 -4 c-10
-23 -10 -23 -10 7 -1 17 2 34 7 38 11 12 14 -18 3 -45z m161 18 c106 -24 112
-30 89 -90 -9 -23 -12 -24 -60 -16 -68 11 -170 40 -177 51 -3 5 -3 27 1 49 6
36 10 40 29 34 11 -3 65 -16 118 -28z m133 -79 c-10 -82 -16 -108 -25 -108
-18 0 -21 22 -10 82 13 69 16 78 32 78 6 0 8 -19 3 -52z m143 37 l82 -7 0 -50
0 -50 -87 7 c-136 10 -136 10 -128 59 9 52 13 58 33 52 10 -2 54 -8 100 -11z
m342 -34 c0 -28 -4 -52 -9 -56 -6 -3 -60 -8 -120 -12 l-111 -6 0 50 0 50 113
10 c61 5 115 10 120 11 4 1 7 -20 7 -47z m350 -30 c5 -21 13 -58 16 -83 l6
-45 -45 -12 c-89 -22 -155 -7 -195 44 -39 49 -26 84 31 86 12 0 54 11 92 24
39 12 73 23 77 24 4 1 12 -16 18 -38z m-1010 1 c72 -19 75 -20 72 -47 -4 -34
-30 -75 -48 -75 -8 0 -14 -4 -14 -9 0 -16 -76 -23 -119 -11 -22 6 -41 14 -41
18 0 20 22 137 27 145 3 5 15 6 27 3 11 -3 55 -14 96 -24z m111 -31 c-9 -6
-10 -11 -2 -15 6 -4 7 -15 2 -29 -8 -21 -7 -22 24 -19 28 3 35 9 40 33 6 24
10 28 29 23 13 -3 63 -9 112 -12 l89 -7 3 -250 c1 -137 6 -261 11 -275 5 -17
-3 -88 -26 -220 -18 -107 -40 -251 -48 -320 -35 -291 -47 -380 -59 -428 -11
-39 -11 -67 -3 -125 18 -128 -22 -899 -48 -926 -2 -2 -41 2 -85 9 -76 12 -143
10 -183 -6 -15 -5 -17 2 -18 62 0 38 -4 92 -9 119 -5 28 -15 140 -22 250 -12
186 -13 287 -10 679 1 112 -5 190 -23 312 -13 89 -27 210 -31 268 -6 94 -5
108 11 126 16 17 17 26 6 77 -6 31 -11 84 -11 117 0 35 -7 73 -15 90 -16 30
-21 181 -9 270 6 38 10 46 28 47 20 0 20 0 -1 9 -39 16 -25 21 36 14 99 -11
169 29 186 106 4 19 13 30 23 30 13 0 14 -2 3 -9z m652 -31 c11 -45 41 -76 85
-91 33 -11 120 -8 172 6 25 6 25 6 5 -11 -14 -12 -15 -15 -4 -11 14 5 17 -13
26 -131 10 -129 10 -139 -9 -176 -13 -25 -23 -74 -29 -135 -13 -153 -12 -172
12 -178 18 -5 20 -11 15 -52 -3 -25 -8 -77 -11 -116 -3 -38 -17 -142 -30 -230
-26 -172 -34 -369 -16 -424 6 -19 13 -66 17 -106 10 -111 -26 -480 -67 -688
-10 -54 -19 -110 -19 -123 0 -21 -4 -24 -22 -20 l-23 6 23 -11 c21 -12 31 -49
13 -49 -5 0 -31 5 -58 11 -37 8 -69 7 -136 -3 -48 -8 -89 -12 -92 -10 -12 12
-3 42 13 43 15 1 15 2 1 6 -10 2 -19 12 -21 21 -6 26 1 842 7 852 6 9 -2 68
-30 225 -8 44 -20 125 -25 180 -6 55 -25 179 -41 275 -17 96 -39 225 -49 285
-11 61 -26 124 -34 140 -22 42 -20 51 14 65 36 15 80 64 80 88 -1 9 -7 2 -15
-15 -12 -28 -66 -73 -87 -73 -5 0 -8 103 -8 229 l0 228 108 5 c59 3 113 7 121
9 8 3 17 -6 21 -21 4 -17 14 -26 31 -28 15 -2 32 -14 43 -33 16 -26 63 -60 83
-59 4 1 -8 9 -28 20 -53 28 -106 147 -62 138 10 -2 21 -18 26 -38z m-923 -749
c-1 -13 -3 -13 -15 3 -19 26 -19 42 0 26 8 -7 15 -20 15 -29z m1217 7 c-3 -8
-6 -5 -6 6 -1 11 2 17 5 13 3 -3 4 -12 1 -19z m-837 -1813 c5 -3 10 -28 10
-55 0 -44 -3 -51 -29 -64 -20 -11 -32 -28 -41 -61 -9 -31 -20 -49 -34 -55 -12
-4 -31 -22 -44 -39 -25 -34 -56 -40 -87 -17 -17 12 -18 18 -7 40 6 14 16 26
21 26 6 0 15 9 21 20 7 14 7 20 0 20 -5 0 -10 -4 -10 -10 0 -5 -11 -20 -25
-34 -14 -14 -25 -34 -25 -46 0 -21 -8 -24 -34 -14 -22 8 -20 32 4 74 l21 35
-26 -28 c-14 -15 -25 -37 -25 -48 0 -10 -7 -19 -15 -19 -21 0 -19 44 3 77 9
15 11 24 4 19 -7 -4 -21 -24 -31 -44 -16 -31 -20 -34 -27 -19 -4 12 1 29 15
47 11 16 21 32 21 36 0 14 -34 -23 -46 -51 l-13 -30 -1 33 c0 27 10 41 56 85
31 28 62 64 70 78 30 59 38 62 156 56 59 -3 112 -8 118 -12z m660 -5 c11 -11
20 -26 20 -34 0 -7 29 -44 65 -81 39 -40 65 -75 65 -88 0 -19 -4 -17 -31 13
-17 20 -24 24 -15 10 18 -28 21 -66 6 -75 -5 -3 -10 3 -10 14 0 11 -11 33 -25
48 l-25 28 22 -41 c20 -38 20 -74 -1 -74 -5 0 -12 13 -16 29 -3 16 -15 37 -27
47 l-20 19 20 -39 c11 -21 18 -44 15 -52 -7 -20 -43 -18 -43 2 0 9 -16 34 -35
55 -19 22 -35 34 -35 29 0 -6 12 -22 26 -35 35 -32 30 -69 -10 -73 -23 -3 -36
4 -62 32 -18 20 -38 36 -43 36 -6 0 -16 20 -22 45 -8 31 -21 52 -40 66 -25 18
-29 27 -29 69 0 53 -4 49 65 63 11 3 53 5 93 6 60 1 75 -2 92 -19z"/>
<path d="M1862 5423 c-7 -2 -17 -14 -23 -25 -9 -18 -8 -18 10 -9 11 6 47 11
80 11 34 0 61 4 61 9 0 15 -98 26 -128 14z"/>
<path d="M2094 5415 c-22 -17 -16 -19 63 -15 28 1 61 -4 73 -10 18 -10 21 -9
18 2 -12 35 -116 51 -154 23z"/>
<path d="M2013 5315 c0 -44 2 -61 4 -37 2 23 2 59 0 80 -2 20 -4 1 -4 -43z"/>
<path d="M1864 5349 c-4 -8 0 -9 15 -4 12 4 21 2 21 -4 0 -6 9 -11 20 -11 11
0 20 4 20 9 0 5 8 12 18 14 9 3 -6 5 -35 6 -28 0 -55 -4 -59 -10z"/>
<path d="M2115 5353 c11 -3 23 -10 26 -16 4 -6 15 -7 25 -2 11 4 28 7 39 6 17
-2 17 0 5 8 -8 6 -37 10 -65 10 -27 -1 -41 -4 -30 -6z"/>
<path d="M1970 5195 c0 -14 4 -25 9 -25 4 0 6 11 3 25 -2 14 -6 25 -8 25 -2 0
-4 -11 -4 -25z"/>
<path d="M2100 5195 c0 -15 4 -24 10 -20 6 3 10 12 10 20 0 8 -4 17 -10 20 -6
4 -10 -5 -10 -20z"/>
<path d="M2009 5177 c7 -10 21 -17 31 -17 10 0 24 7 31 17 13 15 12 15 -8 4
-18 -9 -28 -9 -45 0 -21 11 -22 11 -9 -4z"/>
<path d="M1963 5092 c-6 -4 32 -7 84 -8 53 0 87 3 77 7 -25 10 -146 11 -161 1z"/>
<path d="M2000 5050 c0 -5 18 -10 40 -10 22 0 40 5 40 10 0 6 -18 10 -40 10
-22 0 -40 -4 -40 -10z"/>
<path d="M1740 5316 c0 -2 8 -10 18 -17 15 -13 16 -12 3 4 -13 16 -21 21 -21
13z"/>
<path d="M2326 5304 c-5 -14 -4 -15 9 -4 17 14 19 20 6 20 -5 0 -12 -7 -15
-16z"/>
<path d="M1371 4610 c0 -8 4 -24 9 -35 5 -13 9 -14 9 -5 0 8 -4 24 -9 35 -5
13 -9 14 -9 5z"/>
<path d="M1392 4535 c0 -11 4 -31 8 -45 6 -20 8 -21 8 -5 0 11 -4 31 -8 45 -6
20 -8 21 -8 5z"/>
<path d="M1412 4430 c0 -19 2 -27 5 -17 2 9 2 25 0 35 -3 9 -5 1 -5 -18z"/>
<path d="M2825 4070 c-13 -5 -14 -9 -5 -9 8 0 24 4 35 9 13 5 14 9 5 9 -8 0
-24 -4 -35 -9z"/>
<path d="M1288 4053 c7 -3 16 -2 19 1 4 3 -2 6 -13 5 -11 0 -14 -3 -6 -6z"/>
<path d="M1328 4043 c6 -2 18 -2 25 0 6 3 1 5 -13 5 -14 0 -19 -2 -12 -5z"/>
<path d="M1383 4033 c9 -2 23 -2 30 0 6 3 -1 5 -18 5 -16 0 -22 -2 -12 -5z"/>
<path d="M1290 3621 c0 -6 4 -13 10 -16 6 -3 7 1 4 9 -7 18 -14 21 -14 7z"/>
<path d="M2776 3613 c-6 -14 -5 -15 5 -6 7 7 10 15 7 18 -3 3 -9 -2 -12 -12z"/>
<path d="M2823 2525 c-3 -9 -3 -18 -1 -21 3 -3 8 4 11 16 6 23 -1 27 -10 5z"/>
<path d="M2063 3219 c23 -14 22 -39 -3 -39 -11 0 -20 7 -20 16 0 8 -4 12 -10
9 -16 -10 -12 -23 10 -35 15 -8 24 -6 39 9 10 10 27 21 38 24 12 3 9 5 -9 6
-16 0 -28 6 -28 11 0 6 -8 10 -17 10 -17 -1 -17 -1 0 -11z"/>
<path d="M1513 3143 c9 -2 25 -2 35 0 9 3 1 5 -18 5 -19 0 -27 -2 -17 -5z"/>
<path d="M1598 3133 c38 -8 24 -21 -20 -18 -24 1 -29 0 -13 -2 17 -2 35 -11
41 -19 10 -12 12 -11 17 8 8 28 1 38 -26 37 -22 -2 -22 -2 1 -6z"/>
<path d="M1461 3108 c1 -16 3 -18 6 -6 2 9 16 19 31 21 24 4 24 4 -5 6 -28 1
-33 -2 -32 -21z"/>
<path d="M1673 3067 c-17 -29 -67 -51 -131 -58 l-67 -8 72 3 c76 3 113 19 133
56 12 22 6 28 -7 7z"/>
<path d="M1714 2692 c3 -6 31 -13 62 -17 50 -6 92 -16 159 -39 13 -5 12 -2 -5
8 -21 13 -64 24 -198 52 -13 3 -21 1 -18 -4z"/>
<path d="M1860 2575 c-30 -7 -46 -13 -35 -13 11 -1 47 5 80 12 33 8 49 14 35
14 -14 0 -50 -6 -80 -13z"/>
<path d="M1783 1637 c-28 -35 -83 -74 -138 -96 -27 -11 -43 -20 -35 -20 45 -2
166 76 191 122 14 24 4 21 -18 -6z"/>
<path d="M1570 851 c0 -15 91 -57 140 -65 19 -3 5 4 -32 17 -37 13 -76 31 -88
42 -12 11 -20 13 -20 6z"/>
<path d="M1580 664 c-16 -10 -18 -13 -5 -8 11 4 38 10 60 14 l40 7 -35 1 c-19
1 -46 -6 -60 -14z"/>
<path d="M1698 663 c7 -3 16 -2 19 1 4 3 -2 6 -13 5 -11 0 -14 -3 -6 -6z"/>
<path d="M1738 653 c6 -2 18 -2 25 0 6 3 1 5 -13 5 -14 0 -19 -2 -12 -5z"/>
<path d="M1788 643 c6 -2 18 -2 25 0 6 3 1 5 -13 5 -14 0 -19 -2 -12 -5z"/>
<path d="M2124 2990 c0 -74 1 -105 3 -67 2 37 2 97 0 135 -2 37 -3 6 -3 -68z"/>
<path d="M2438 3003 c7 -3 16 -2 19 1 4 3 -2 6 -13 5 -11 0 -14 -3 -6 -6z"/>
<path d="M2297 2690 c-61 -11 -177 -46 -197 -61 -12 -9 -11 -10 5 -4 66 24
141 44 185 50 27 4 52 11 56 16 3 5 4 8 2 8 -2 -1 -25 -5 -51 -9z"/>
<path d="M2145 2569 c39 -10 79 -18 90 -18 11 1 -14 9 -55 20 -98 24 -126 23
-35 -2z"/>
<path d="M2269 1643 c14 -27 66 -68 104 -82 39 -15 34 -4 -6 13 -19 7 -51 31
-72 52 -23 24 -33 30 -26 17z"/>
<path d="M2313 1503 c9 -2 23 -2 30 0 6 3 -1 5 -18 5 -16 0 -22 -2 -12 -5z"/>
<path d="M2410 1480 c30 -10 56 -17 58 -16 5 6 -77 36 -96 36 -9 -1 8 -9 38
-20z"/>
<path d="M2420 823 c-38 -20 -55 -24 -107 -21 -35 2 -57 0 -50 -4 36 -23 180
6 201 41 9 14 9 14 -44 -16z"/>
<path d="M2328 653 c7 -3 16 -2 19 1 4 3 -2 6 -13 5 -11 0 -14 -3 -6 -6z"/>
<path d="M2268 643 c7 -3 16 -2 19 1 4 3 -2 6 -13 5 -11 0 -14 -3 -6 -6z"/>
<path d="M1597 323 c-3 -5 5 -8 18 -8 13 0 21 3 18 8 -2 4 -10 7 -18 7 -8 0
-16 -3 -18 -7z"/>
<path d="M2408 313 c6 -2 18 -2 25 0 6 3 1 5 -13 5 -14 0 -19 -2 -12 -5z"/>
</g>
</svg>
